G04 #@! TF.FileFunction,Legend,Top*
%FSLAX46Y46*%
G04 Gerber Fmt 4.6, Leading zero omitted, Abs format (unit mm)*
G04 Created by KiCad (PCBNEW 4.0.7) date 11/12/17 23:12:21*
%MOMM*%
%LPD*%
G01*
G04 APERTURE LIST*
%ADD10C,0.100000*%
%ADD11C,0.250000*%
%ADD12C,0.150000*%
%ADD13C,0.120000*%
G04 APERTURE END LIST*
D10*
D11*
X147425000Y-59943905D02*
X147472619Y-59848667D01*
X147472619Y-59705810D01*
X147425000Y-59562952D01*
X147329762Y-59467714D01*
X147234524Y-59420095D01*
X147044048Y-59372476D01*
X146901190Y-59372476D01*
X146710714Y-59420095D01*
X146615476Y-59467714D01*
X146520238Y-59562952D01*
X146472619Y-59705810D01*
X146472619Y-59801048D01*
X146520238Y-59943905D01*
X146567857Y-59991524D01*
X146901190Y-59991524D01*
X146901190Y-59801048D01*
X146472619Y-60420095D02*
X147139286Y-60420095D01*
X146948810Y-60420095D02*
X147044048Y-60467714D01*
X147091667Y-60515333D01*
X147139286Y-60610571D01*
X147139286Y-60705810D01*
X146520238Y-61420096D02*
X146472619Y-61324858D01*
X146472619Y-61134381D01*
X146520238Y-61039143D01*
X146615476Y-60991524D01*
X146996429Y-60991524D01*
X147091667Y-61039143D01*
X147139286Y-61134381D01*
X147139286Y-61324858D01*
X147091667Y-61420096D01*
X146996429Y-61467715D01*
X146901190Y-61467715D01*
X146805952Y-60991524D01*
X146520238Y-62277239D02*
X146472619Y-62182001D01*
X146472619Y-61991524D01*
X146520238Y-61896286D01*
X146615476Y-61848667D01*
X146996429Y-61848667D01*
X147091667Y-61896286D01*
X147139286Y-61991524D01*
X147139286Y-62182001D01*
X147091667Y-62277239D01*
X146996429Y-62324858D01*
X146901190Y-62324858D01*
X146805952Y-61848667D01*
X147139286Y-62753429D02*
X146472619Y-62753429D01*
X147044048Y-62753429D02*
X147091667Y-62801048D01*
X147139286Y-62896286D01*
X147139286Y-63039144D01*
X147091667Y-63134382D01*
X146996429Y-63182001D01*
X146472619Y-63182001D01*
X146472619Y-63658191D02*
X147472619Y-63658191D01*
X146472619Y-64086763D02*
X146996429Y-64086763D01*
X147091667Y-64039144D01*
X147139286Y-63943906D01*
X147139286Y-63801048D01*
X147091667Y-63705810D01*
X147044048Y-63658191D01*
X146472619Y-64705810D02*
X146520238Y-64610572D01*
X146567857Y-64562953D01*
X146663095Y-64515334D01*
X146948810Y-64515334D01*
X147044048Y-64562953D01*
X147091667Y-64610572D01*
X147139286Y-64705810D01*
X147139286Y-64848668D01*
X147091667Y-64943906D01*
X147044048Y-64991525D01*
X146948810Y-65039144D01*
X146663095Y-65039144D01*
X146567857Y-64991525D01*
X146520238Y-64943906D01*
X146472619Y-64848668D01*
X146472619Y-64705810D01*
X147139286Y-65896287D02*
X146472619Y-65896287D01*
X147139286Y-65467715D02*
X146615476Y-65467715D01*
X146520238Y-65515334D01*
X146472619Y-65610572D01*
X146472619Y-65753430D01*
X146520238Y-65848668D01*
X146567857Y-65896287D01*
X146520238Y-66324858D02*
X146472619Y-66420096D01*
X146472619Y-66610572D01*
X146520238Y-66705811D01*
X146615476Y-66753430D01*
X146663095Y-66753430D01*
X146758333Y-66705811D01*
X146805952Y-66610572D01*
X146805952Y-66467715D01*
X146853571Y-66372477D01*
X146948810Y-66324858D01*
X146996429Y-66324858D01*
X147091667Y-66372477D01*
X147139286Y-66467715D01*
X147139286Y-66610572D01*
X147091667Y-66705811D01*
X146520238Y-67562954D02*
X146472619Y-67467716D01*
X146472619Y-67277239D01*
X146520238Y-67182001D01*
X146615476Y-67134382D01*
X146996429Y-67134382D01*
X147091667Y-67182001D01*
X147139286Y-67277239D01*
X147139286Y-67467716D01*
X147091667Y-67562954D01*
X146996429Y-67610573D01*
X146901190Y-67610573D01*
X146805952Y-67134382D01*
X144722619Y-59420095D02*
X145722619Y-59420095D01*
X144722619Y-59991524D01*
X145722619Y-59991524D01*
X144722619Y-60610571D02*
X144770238Y-60515333D01*
X144817857Y-60467714D01*
X144913095Y-60420095D01*
X145198810Y-60420095D01*
X145294048Y-60467714D01*
X145341667Y-60515333D01*
X145389286Y-60610571D01*
X145389286Y-60753429D01*
X145341667Y-60848667D01*
X145294048Y-60896286D01*
X145198810Y-60943905D01*
X144913095Y-60943905D01*
X144817857Y-60896286D01*
X144770238Y-60848667D01*
X144722619Y-60753429D01*
X144722619Y-60610571D01*
X145389286Y-61277238D02*
X144722619Y-61515333D01*
X145389286Y-61753429D01*
X145627381Y-62848667D02*
X145675000Y-62896286D01*
X145722619Y-62991524D01*
X145722619Y-63229620D01*
X145675000Y-63324858D01*
X145627381Y-63372477D01*
X145532143Y-63420096D01*
X145436905Y-63420096D01*
X145294048Y-63372477D01*
X144722619Y-62801048D01*
X144722619Y-63420096D01*
X145722619Y-64039143D02*
X145722619Y-64134382D01*
X145675000Y-64229620D01*
X145627381Y-64277239D01*
X145532143Y-64324858D01*
X145341667Y-64372477D01*
X145103571Y-64372477D01*
X144913095Y-64324858D01*
X144817857Y-64277239D01*
X144770238Y-64229620D01*
X144722619Y-64134382D01*
X144722619Y-64039143D01*
X144770238Y-63943905D01*
X144817857Y-63896286D01*
X144913095Y-63848667D01*
X145103571Y-63801048D01*
X145341667Y-63801048D01*
X145532143Y-63848667D01*
X145627381Y-63896286D01*
X145675000Y-63943905D01*
X145722619Y-64039143D01*
X144722619Y-65324858D02*
X144722619Y-64753429D01*
X144722619Y-65039143D02*
X145722619Y-65039143D01*
X145579762Y-64943905D01*
X145484524Y-64848667D01*
X145436905Y-64753429D01*
X145722619Y-65658191D02*
X145722619Y-66324858D01*
X144722619Y-65896286D01*
X145722619Y-67324858D02*
X145722619Y-67896287D01*
X144722619Y-67610572D02*
X145722619Y-67610572D01*
X144722619Y-68229620D02*
X145722619Y-68229620D01*
X145008333Y-68562954D01*
X145722619Y-68896287D01*
X144722619Y-68896287D01*
X144817857Y-69943906D02*
X144770238Y-69896287D01*
X144722619Y-69753430D01*
X144722619Y-69658192D01*
X144770238Y-69515334D01*
X144865476Y-69420096D01*
X144960714Y-69372477D01*
X145151190Y-69324858D01*
X145294048Y-69324858D01*
X145484524Y-69372477D01*
X145579762Y-69420096D01*
X145675000Y-69515334D01*
X145722619Y-69658192D01*
X145722619Y-69753430D01*
X145675000Y-69896287D01*
X145627381Y-69943906D01*
X144770238Y-70324858D02*
X144722619Y-70467715D01*
X144722619Y-70705811D01*
X144770238Y-70801049D01*
X144817857Y-70848668D01*
X144913095Y-70896287D01*
X145008333Y-70896287D01*
X145103571Y-70848668D01*
X145151190Y-70801049D01*
X145198810Y-70705811D01*
X145246429Y-70515334D01*
X145294048Y-70420096D01*
X145341667Y-70372477D01*
X145436905Y-70324858D01*
X145532143Y-70324858D01*
X145627381Y-70372477D01*
X145675000Y-70420096D01*
X145722619Y-70515334D01*
X145722619Y-70753430D01*
X145675000Y-70896287D01*
D12*
X181358540Y-99071720D02*
X179834540Y-102101720D01*
X161038540Y-99071720D02*
X162562540Y-102101720D01*
X162562540Y-102101720D02*
X179834540Y-102101720D01*
X181358540Y-65961260D02*
X181358540Y-99071720D01*
X161038540Y-65961720D02*
X161038540Y-99071720D01*
X175211740Y-65961260D02*
X181358540Y-65961260D01*
X167185340Y-65961720D02*
X161038540Y-65961720D01*
X167185340Y-64056260D02*
X167185340Y-65961260D01*
X175211740Y-64056260D02*
X175211740Y-65961260D01*
X167185340Y-64056260D02*
X175211740Y-64056260D01*
D13*
X170343136Y-59679820D02*
G75*
G03X170344000Y-53644518I-1179136J3017820D01*
G01*
X167984864Y-59679820D02*
G75*
G02X167984000Y-53644518I1179136J3017820D01*
G01*
X167984864Y-59679820D02*
G75*
G03X170344000Y-59679482I1179136J3017820D01*
G01*
X172364000Y-56662000D02*
X165964000Y-56662000D01*
X172364000Y-56702000D02*
X165964000Y-56702000D01*
X172364000Y-56742000D02*
X165964000Y-56742000D01*
X172362000Y-56782000D02*
X165966000Y-56782000D01*
X172361000Y-56822000D02*
X165967000Y-56822000D01*
X172358000Y-56862000D02*
X165970000Y-56862000D01*
X172356000Y-56902000D02*
X165972000Y-56902000D01*
X172352000Y-56942000D02*
X170144000Y-56942000D01*
X168184000Y-56942000D02*
X165976000Y-56942000D01*
X172349000Y-56982000D02*
X170144000Y-56982000D01*
X168184000Y-56982000D02*
X165979000Y-56982000D01*
X172344000Y-57022000D02*
X170144000Y-57022000D01*
X168184000Y-57022000D02*
X165984000Y-57022000D01*
X172340000Y-57062000D02*
X170144000Y-57062000D01*
X168184000Y-57062000D02*
X165988000Y-57062000D01*
X172334000Y-57102000D02*
X170144000Y-57102000D01*
X168184000Y-57102000D02*
X165994000Y-57102000D01*
X172329000Y-57142000D02*
X170144000Y-57142000D01*
X168184000Y-57142000D02*
X165999000Y-57142000D01*
X172322000Y-57182000D02*
X170144000Y-57182000D01*
X168184000Y-57182000D02*
X166006000Y-57182000D01*
X172316000Y-57222000D02*
X170144000Y-57222000D01*
X168184000Y-57222000D02*
X166012000Y-57222000D01*
X172308000Y-57262000D02*
X170144000Y-57262000D01*
X168184000Y-57262000D02*
X166020000Y-57262000D01*
X172301000Y-57302000D02*
X170144000Y-57302000D01*
X168184000Y-57302000D02*
X166027000Y-57302000D01*
X172292000Y-57342000D02*
X170144000Y-57342000D01*
X168184000Y-57342000D02*
X166036000Y-57342000D01*
X172283000Y-57383000D02*
X170144000Y-57383000D01*
X168184000Y-57383000D02*
X166045000Y-57383000D01*
X172274000Y-57423000D02*
X170144000Y-57423000D01*
X168184000Y-57423000D02*
X166054000Y-57423000D01*
X172264000Y-57463000D02*
X170144000Y-57463000D01*
X168184000Y-57463000D02*
X166064000Y-57463000D01*
X172254000Y-57503000D02*
X170144000Y-57503000D01*
X168184000Y-57503000D02*
X166074000Y-57503000D01*
X172243000Y-57543000D02*
X170144000Y-57543000D01*
X168184000Y-57543000D02*
X166085000Y-57543000D01*
X172231000Y-57583000D02*
X170144000Y-57583000D01*
X168184000Y-57583000D02*
X166097000Y-57583000D01*
X172219000Y-57623000D02*
X170144000Y-57623000D01*
X168184000Y-57623000D02*
X166109000Y-57623000D01*
X172206000Y-57663000D02*
X170144000Y-57663000D01*
X168184000Y-57663000D02*
X166122000Y-57663000D01*
X172193000Y-57703000D02*
X170144000Y-57703000D01*
X168184000Y-57703000D02*
X166135000Y-57703000D01*
X172179000Y-57743000D02*
X170144000Y-57743000D01*
X168184000Y-57743000D02*
X166149000Y-57743000D01*
X172165000Y-57783000D02*
X170144000Y-57783000D01*
X168184000Y-57783000D02*
X166163000Y-57783000D01*
X172150000Y-57823000D02*
X170144000Y-57823000D01*
X168184000Y-57823000D02*
X166178000Y-57823000D01*
X172134000Y-57863000D02*
X170144000Y-57863000D01*
X168184000Y-57863000D02*
X166194000Y-57863000D01*
X172118000Y-57903000D02*
X170144000Y-57903000D01*
X168184000Y-57903000D02*
X166210000Y-57903000D01*
X172101000Y-57943000D02*
X170144000Y-57943000D01*
X168184000Y-57943000D02*
X166227000Y-57943000D01*
X172083000Y-57983000D02*
X170144000Y-57983000D01*
X168184000Y-57983000D02*
X166245000Y-57983000D01*
X172065000Y-58023000D02*
X170144000Y-58023000D01*
X168184000Y-58023000D02*
X166263000Y-58023000D01*
X172046000Y-58063000D02*
X170144000Y-58063000D01*
X168184000Y-58063000D02*
X166282000Y-58063000D01*
X172027000Y-58103000D02*
X170144000Y-58103000D01*
X168184000Y-58103000D02*
X166301000Y-58103000D01*
X172007000Y-58143000D02*
X170144000Y-58143000D01*
X168184000Y-58143000D02*
X166321000Y-58143000D01*
X171986000Y-58183000D02*
X170144000Y-58183000D01*
X168184000Y-58183000D02*
X166342000Y-58183000D01*
X171964000Y-58223000D02*
X170144000Y-58223000D01*
X168184000Y-58223000D02*
X166364000Y-58223000D01*
X171942000Y-58263000D02*
X170144000Y-58263000D01*
X168184000Y-58263000D02*
X166386000Y-58263000D01*
X171919000Y-58303000D02*
X170144000Y-58303000D01*
X168184000Y-58303000D02*
X166409000Y-58303000D01*
X171895000Y-58343000D02*
X170144000Y-58343000D01*
X168184000Y-58343000D02*
X166433000Y-58343000D01*
X171870000Y-58383000D02*
X170144000Y-58383000D01*
X168184000Y-58383000D02*
X166458000Y-58383000D01*
X171845000Y-58423000D02*
X170144000Y-58423000D01*
X168184000Y-58423000D02*
X166483000Y-58423000D01*
X171818000Y-58463000D02*
X170144000Y-58463000D01*
X168184000Y-58463000D02*
X166510000Y-58463000D01*
X171791000Y-58503000D02*
X170144000Y-58503000D01*
X168184000Y-58503000D02*
X166537000Y-58503000D01*
X171763000Y-58543000D02*
X170144000Y-58543000D01*
X168184000Y-58543000D02*
X166565000Y-58543000D01*
X171734000Y-58583000D02*
X170144000Y-58583000D01*
X168184000Y-58583000D02*
X166594000Y-58583000D01*
X171704000Y-58623000D02*
X170144000Y-58623000D01*
X168184000Y-58623000D02*
X166624000Y-58623000D01*
X171674000Y-58663000D02*
X170144000Y-58663000D01*
X168184000Y-58663000D02*
X166654000Y-58663000D01*
X171642000Y-58703000D02*
X170144000Y-58703000D01*
X168184000Y-58703000D02*
X166686000Y-58703000D01*
X171609000Y-58743000D02*
X170144000Y-58743000D01*
X168184000Y-58743000D02*
X166719000Y-58743000D01*
X171575000Y-58783000D02*
X170144000Y-58783000D01*
X168184000Y-58783000D02*
X166753000Y-58783000D01*
X171539000Y-58823000D02*
X170144000Y-58823000D01*
X168184000Y-58823000D02*
X166789000Y-58823000D01*
X171503000Y-58863000D02*
X170144000Y-58863000D01*
X168184000Y-58863000D02*
X166825000Y-58863000D01*
X171465000Y-58903000D02*
X166863000Y-58903000D01*
X171426000Y-58943000D02*
X166902000Y-58943000D01*
X171386000Y-58983000D02*
X166942000Y-58983000D01*
X171344000Y-59023000D02*
X166984000Y-59023000D01*
X171301000Y-59063000D02*
X167027000Y-59063000D01*
X171256000Y-59103000D02*
X167072000Y-59103000D01*
X171209000Y-59143000D02*
X167119000Y-59143000D01*
X171161000Y-59183000D02*
X167167000Y-59183000D01*
X171110000Y-59223000D02*
X167218000Y-59223000D01*
X171058000Y-59263000D02*
X167270000Y-59263000D01*
X171003000Y-59303000D02*
X167325000Y-59303000D01*
X170945000Y-59343000D02*
X167383000Y-59343000D01*
X170885000Y-59383000D02*
X167443000Y-59383000D01*
X170822000Y-59423000D02*
X167506000Y-59423000D01*
X170755000Y-59463000D02*
X167573000Y-59463000D01*
X170684000Y-59503000D02*
X167644000Y-59503000D01*
X170609000Y-59543000D02*
X167719000Y-59543000D01*
X170528000Y-59583000D02*
X167800000Y-59583000D01*
X170442000Y-59623000D02*
X167886000Y-59623000D01*
X170348000Y-59663000D02*
X167980000Y-59663000D01*
X170245000Y-59703000D02*
X168083000Y-59703000D01*
X170130000Y-59743000D02*
X168198000Y-59743000D01*
X169998000Y-59783000D02*
X168330000Y-59783000D01*
X169840000Y-59823000D02*
X168488000Y-59823000D01*
X169632000Y-59863000D02*
X168696000Y-59863000D01*
X169164000Y-53212000D02*
X169164000Y-54412000D01*
X169814000Y-53812000D02*
X168514000Y-53812000D01*
X148640180Y-102779136D02*
G75*
G03X154675482Y-102780000I3017820J1179136D01*
G01*
X148640180Y-100420864D02*
G75*
G02X154675482Y-100420000I3017820J-1179136D01*
G01*
X148640180Y-100420864D02*
G75*
G03X148640518Y-102780000I3017820J-1179136D01*
G01*
X151658000Y-104800000D02*
X151658000Y-98400000D01*
X151618000Y-104800000D02*
X151618000Y-98400000D01*
X151578000Y-104800000D02*
X151578000Y-98400000D01*
X151538000Y-104798000D02*
X151538000Y-98402000D01*
X151498000Y-104797000D02*
X151498000Y-98403000D01*
X151458000Y-104794000D02*
X151458000Y-98406000D01*
X151418000Y-104792000D02*
X151418000Y-98408000D01*
X151378000Y-104788000D02*
X151378000Y-102580000D01*
X151378000Y-100620000D02*
X151378000Y-98412000D01*
X151338000Y-104785000D02*
X151338000Y-102580000D01*
X151338000Y-100620000D02*
X151338000Y-98415000D01*
X151298000Y-104780000D02*
X151298000Y-102580000D01*
X151298000Y-100620000D02*
X151298000Y-98420000D01*
X151258000Y-104776000D02*
X151258000Y-102580000D01*
X151258000Y-100620000D02*
X151258000Y-98424000D01*
X151218000Y-104770000D02*
X151218000Y-102580000D01*
X151218000Y-100620000D02*
X151218000Y-98430000D01*
X151178000Y-104765000D02*
X151178000Y-102580000D01*
X151178000Y-100620000D02*
X151178000Y-98435000D01*
X151138000Y-104758000D02*
X151138000Y-102580000D01*
X151138000Y-100620000D02*
X151138000Y-98442000D01*
X151098000Y-104752000D02*
X151098000Y-102580000D01*
X151098000Y-100620000D02*
X151098000Y-98448000D01*
X151058000Y-104744000D02*
X151058000Y-102580000D01*
X151058000Y-100620000D02*
X151058000Y-98456000D01*
X151018000Y-104737000D02*
X151018000Y-102580000D01*
X151018000Y-100620000D02*
X151018000Y-98463000D01*
X150978000Y-104728000D02*
X150978000Y-102580000D01*
X150978000Y-100620000D02*
X150978000Y-98472000D01*
X150937000Y-104719000D02*
X150937000Y-102580000D01*
X150937000Y-100620000D02*
X150937000Y-98481000D01*
X150897000Y-104710000D02*
X150897000Y-102580000D01*
X150897000Y-100620000D02*
X150897000Y-98490000D01*
X150857000Y-104700000D02*
X150857000Y-102580000D01*
X150857000Y-100620000D02*
X150857000Y-98500000D01*
X150817000Y-104690000D02*
X150817000Y-102580000D01*
X150817000Y-100620000D02*
X150817000Y-98510000D01*
X150777000Y-104679000D02*
X150777000Y-102580000D01*
X150777000Y-100620000D02*
X150777000Y-98521000D01*
X150737000Y-104667000D02*
X150737000Y-102580000D01*
X150737000Y-100620000D02*
X150737000Y-98533000D01*
X150697000Y-104655000D02*
X150697000Y-102580000D01*
X150697000Y-100620000D02*
X150697000Y-98545000D01*
X150657000Y-104642000D02*
X150657000Y-102580000D01*
X150657000Y-100620000D02*
X150657000Y-98558000D01*
X150617000Y-104629000D02*
X150617000Y-102580000D01*
X150617000Y-100620000D02*
X150617000Y-98571000D01*
X150577000Y-104615000D02*
X150577000Y-102580000D01*
X150577000Y-100620000D02*
X150577000Y-98585000D01*
X150537000Y-104601000D02*
X150537000Y-102580000D01*
X150537000Y-100620000D02*
X150537000Y-98599000D01*
X150497000Y-104586000D02*
X150497000Y-102580000D01*
X150497000Y-100620000D02*
X150497000Y-98614000D01*
X150457000Y-104570000D02*
X150457000Y-102580000D01*
X150457000Y-100620000D02*
X150457000Y-98630000D01*
X150417000Y-104554000D02*
X150417000Y-102580000D01*
X150417000Y-100620000D02*
X150417000Y-98646000D01*
X150377000Y-104537000D02*
X150377000Y-102580000D01*
X150377000Y-100620000D02*
X150377000Y-98663000D01*
X150337000Y-104519000D02*
X150337000Y-102580000D01*
X150337000Y-100620000D02*
X150337000Y-98681000D01*
X150297000Y-104501000D02*
X150297000Y-102580000D01*
X150297000Y-100620000D02*
X150297000Y-98699000D01*
X150257000Y-104482000D02*
X150257000Y-102580000D01*
X150257000Y-100620000D02*
X150257000Y-98718000D01*
X150217000Y-104463000D02*
X150217000Y-102580000D01*
X150217000Y-100620000D02*
X150217000Y-98737000D01*
X150177000Y-104443000D02*
X150177000Y-102580000D01*
X150177000Y-100620000D02*
X150177000Y-98757000D01*
X150137000Y-104422000D02*
X150137000Y-102580000D01*
X150137000Y-100620000D02*
X150137000Y-98778000D01*
X150097000Y-104400000D02*
X150097000Y-102580000D01*
X150097000Y-100620000D02*
X150097000Y-98800000D01*
X150057000Y-104378000D02*
X150057000Y-102580000D01*
X150057000Y-100620000D02*
X150057000Y-98822000D01*
X150017000Y-104355000D02*
X150017000Y-102580000D01*
X150017000Y-100620000D02*
X150017000Y-98845000D01*
X149977000Y-104331000D02*
X149977000Y-102580000D01*
X149977000Y-100620000D02*
X149977000Y-98869000D01*
X149937000Y-104306000D02*
X149937000Y-102580000D01*
X149937000Y-100620000D02*
X149937000Y-98894000D01*
X149897000Y-104281000D02*
X149897000Y-102580000D01*
X149897000Y-100620000D02*
X149897000Y-98919000D01*
X149857000Y-104254000D02*
X149857000Y-102580000D01*
X149857000Y-100620000D02*
X149857000Y-98946000D01*
X149817000Y-104227000D02*
X149817000Y-102580000D01*
X149817000Y-100620000D02*
X149817000Y-98973000D01*
X149777000Y-104199000D02*
X149777000Y-102580000D01*
X149777000Y-100620000D02*
X149777000Y-99001000D01*
X149737000Y-104170000D02*
X149737000Y-102580000D01*
X149737000Y-100620000D02*
X149737000Y-99030000D01*
X149697000Y-104140000D02*
X149697000Y-102580000D01*
X149697000Y-100620000D02*
X149697000Y-99060000D01*
X149657000Y-104110000D02*
X149657000Y-102580000D01*
X149657000Y-100620000D02*
X149657000Y-99090000D01*
X149617000Y-104078000D02*
X149617000Y-102580000D01*
X149617000Y-100620000D02*
X149617000Y-99122000D01*
X149577000Y-104045000D02*
X149577000Y-102580000D01*
X149577000Y-100620000D02*
X149577000Y-99155000D01*
X149537000Y-104011000D02*
X149537000Y-102580000D01*
X149537000Y-100620000D02*
X149537000Y-99189000D01*
X149497000Y-103975000D02*
X149497000Y-102580000D01*
X149497000Y-100620000D02*
X149497000Y-99225000D01*
X149457000Y-103939000D02*
X149457000Y-102580000D01*
X149457000Y-100620000D02*
X149457000Y-99261000D01*
X149417000Y-103901000D02*
X149417000Y-99299000D01*
X149377000Y-103862000D02*
X149377000Y-99338000D01*
X149337000Y-103822000D02*
X149337000Y-99378000D01*
X149297000Y-103780000D02*
X149297000Y-99420000D01*
X149257000Y-103737000D02*
X149257000Y-99463000D01*
X149217000Y-103692000D02*
X149217000Y-99508000D01*
X149177000Y-103645000D02*
X149177000Y-99555000D01*
X149137000Y-103597000D02*
X149137000Y-99603000D01*
X149097000Y-103546000D02*
X149097000Y-99654000D01*
X149057000Y-103494000D02*
X149057000Y-99706000D01*
X149017000Y-103439000D02*
X149017000Y-99761000D01*
X148977000Y-103381000D02*
X148977000Y-99819000D01*
X148937000Y-103321000D02*
X148937000Y-99879000D01*
X148897000Y-103258000D02*
X148897000Y-99942000D01*
X148857000Y-103191000D02*
X148857000Y-100009000D01*
X148817000Y-103120000D02*
X148817000Y-100080000D01*
X148777000Y-103045000D02*
X148777000Y-100155000D01*
X148737000Y-102964000D02*
X148737000Y-100236000D01*
X148697000Y-102878000D02*
X148697000Y-100322000D01*
X148657000Y-102784000D02*
X148657000Y-100416000D01*
X148617000Y-102681000D02*
X148617000Y-100519000D01*
X148577000Y-102566000D02*
X148577000Y-100634000D01*
X148537000Y-102434000D02*
X148537000Y-100766000D01*
X148497000Y-102276000D02*
X148497000Y-100924000D01*
X148457000Y-102068000D02*
X148457000Y-101132000D01*
X155108000Y-101600000D02*
X153908000Y-101600000D01*
X154508000Y-102250000D02*
X154508000Y-100950000D01*
X153810000Y-58808000D02*
X150990000Y-58808000D01*
X150990000Y-58808000D02*
X150990000Y-64128000D01*
X150990000Y-64128000D02*
X153810000Y-64128000D01*
X153810000Y-64128000D02*
X153810000Y-58808000D01*
X152400000Y-57668000D02*
X152400000Y-58808000D01*
X152400000Y-65268000D02*
X152400000Y-64128000D01*
X153810000Y-59648000D02*
X150990000Y-59648000D01*
X181526000Y-49724000D02*
X181526000Y-57464000D01*
X181526000Y-57464000D02*
X184186000Y-57464000D01*
X184186000Y-57464000D02*
X184186000Y-49724000D01*
X184186000Y-49724000D02*
X181526000Y-49724000D01*
X184186000Y-50674000D02*
X190186000Y-50674000D01*
X190186000Y-50674000D02*
X190186000Y-51434000D01*
X190186000Y-51434000D02*
X184186000Y-51434000D01*
X184186000Y-50734000D02*
X190186000Y-50734000D01*
X184186000Y-50854000D02*
X190186000Y-50854000D01*
X184186000Y-50974000D02*
X190186000Y-50974000D01*
X184186000Y-51094000D02*
X190186000Y-51094000D01*
X184186000Y-51214000D02*
X190186000Y-51214000D01*
X184186000Y-51334000D02*
X190186000Y-51334000D01*
X181196000Y-50674000D02*
X181526000Y-50674000D01*
X181196000Y-51434000D02*
X181526000Y-51434000D01*
X181526000Y-52324000D02*
X184186000Y-52324000D01*
X184186000Y-53214000D02*
X190186000Y-53214000D01*
X190186000Y-53214000D02*
X190186000Y-53974000D01*
X190186000Y-53974000D02*
X184186000Y-53974000D01*
X181128929Y-53214000D02*
X181526000Y-53214000D01*
X181128929Y-53974000D02*
X181526000Y-53974000D01*
X181526000Y-54864000D02*
X184186000Y-54864000D01*
X184186000Y-55754000D02*
X190186000Y-55754000D01*
X190186000Y-55754000D02*
X190186000Y-56514000D01*
X190186000Y-56514000D02*
X184186000Y-56514000D01*
X181128929Y-55754000D02*
X181526000Y-55754000D01*
X181128929Y-56514000D02*
X181526000Y-56514000D01*
X178816000Y-51054000D02*
X178816000Y-49784000D01*
X178816000Y-49784000D02*
X180086000Y-49784000D01*
D12*
X150368000Y-124460000D02*
X150368000Y-123190000D01*
X145288000Y-124460000D02*
X150368000Y-124460000D01*
X145288000Y-123190000D02*
X145288000Y-124460000D01*
D13*
X145228000Y-123250000D02*
X150428000Y-123250000D01*
X145228000Y-118110000D02*
X145228000Y-123250000D01*
X150428000Y-115510000D02*
X150428000Y-123250000D01*
X145228000Y-118110000D02*
X147828000Y-118110000D01*
X147828000Y-118110000D02*
X147828000Y-115510000D01*
X147828000Y-115510000D02*
X150428000Y-115510000D01*
X145228000Y-116840000D02*
X145228000Y-115510000D01*
X145228000Y-115510000D02*
X146558000Y-115510000D01*
D12*
X185710000Y-116868000D02*
X186110000Y-116868000D01*
X184610000Y-120368000D02*
X184610000Y-113368000D01*
X185710000Y-120368000D02*
X185710000Y-113368000D01*
X178510000Y-120368000D02*
X186110000Y-120368000D01*
X186110000Y-113368000D02*
X178510000Y-113368000D01*
X178510000Y-113368000D02*
X178510000Y-120368000D01*
D13*
X164246000Y-56388000D02*
G75*
G03X164246000Y-56388000I-4440000J0D01*
G01*
X174788000Y-60614000D02*
X174458000Y-60614000D01*
X174458000Y-60614000D02*
X174458000Y-54194000D01*
X174458000Y-54194000D02*
X174788000Y-54194000D01*
X176748000Y-60614000D02*
X177078000Y-60614000D01*
X177078000Y-60614000D02*
X177078000Y-54194000D01*
X177078000Y-54194000D02*
X176748000Y-54194000D01*
X150130000Y-94548000D02*
G75*
G02X152130000Y-94548000I1000000J0D01*
G01*
X152130000Y-94548000D02*
X153780000Y-94548000D01*
X153780000Y-94548000D02*
X153780000Y-74108000D01*
X153780000Y-74108000D02*
X148480000Y-74108000D01*
X148480000Y-74108000D02*
X148480000Y-94548000D01*
X148480000Y-94548000D02*
X150130000Y-94548000D01*
X170300000Y-122468000D02*
X170300000Y-112228000D01*
X154410000Y-122468000D02*
X154410000Y-112228000D01*
X154410000Y-122468000D02*
X170300000Y-122468000D01*
X154410000Y-112228000D02*
X170300000Y-112228000D01*
X170300000Y-119888000D02*
X172940000Y-119888000D01*
X170300000Y-117348000D02*
X172924000Y-117348000D01*
X170300000Y-114808000D02*
X172924000Y-114808000D01*
D12*
X161024254Y-64204117D02*
X161024254Y-65175546D01*
X161081397Y-65289831D01*
X161138540Y-65346974D01*
X161252826Y-65404117D01*
X161481397Y-65404117D01*
X161595683Y-65346974D01*
X161652826Y-65289831D01*
X161709969Y-65175546D01*
X161709969Y-64204117D01*
X162224254Y-64318403D02*
X162281397Y-64261260D01*
X162395683Y-64204117D01*
X162681397Y-64204117D01*
X162795683Y-64261260D01*
X162852826Y-64318403D01*
X162909969Y-64432689D01*
X162909969Y-64546974D01*
X162852826Y-64718403D01*
X162167112Y-65404117D01*
X162909969Y-65404117D01*
X164427113Y-84362857D02*
X164427113Y-83162857D01*
X164884256Y-83162857D01*
X164998542Y-83220000D01*
X165055685Y-83277143D01*
X165112828Y-83391429D01*
X165112828Y-83562857D01*
X165055685Y-83677143D01*
X164998542Y-83734286D01*
X164884256Y-83791429D01*
X164427113Y-83791429D01*
X166141399Y-84362857D02*
X166141399Y-83734286D01*
X166084256Y-83620000D01*
X165969970Y-83562857D01*
X165741399Y-83562857D01*
X165627113Y-83620000D01*
X166141399Y-84305714D02*
X166027113Y-84362857D01*
X165741399Y-84362857D01*
X165627113Y-84305714D01*
X165569970Y-84191429D01*
X165569970Y-84077143D01*
X165627113Y-83962857D01*
X165741399Y-83905714D01*
X166027113Y-83905714D01*
X166141399Y-83848571D01*
X166712827Y-84362857D02*
X166712827Y-83562857D01*
X166712827Y-83791429D02*
X166769970Y-83677143D01*
X166827113Y-83620000D01*
X166941399Y-83562857D01*
X167055684Y-83562857D01*
X167284256Y-83562857D02*
X167741399Y-83562857D01*
X167455684Y-83162857D02*
X167455684Y-84191429D01*
X167512827Y-84305714D01*
X167627113Y-84362857D01*
X167741399Y-84362857D01*
X168141398Y-84362857D02*
X168141398Y-83562857D01*
X168141398Y-83162857D02*
X168084255Y-83220000D01*
X168141398Y-83277143D01*
X168198541Y-83220000D01*
X168141398Y-83162857D01*
X168141398Y-83277143D01*
X169227113Y-84305714D02*
X169112827Y-84362857D01*
X168884256Y-84362857D01*
X168769970Y-84305714D01*
X168712827Y-84248571D01*
X168655684Y-84134286D01*
X168655684Y-83791429D01*
X168712827Y-83677143D01*
X168769970Y-83620000D01*
X168884256Y-83562857D01*
X169112827Y-83562857D01*
X169227113Y-83620000D01*
X169912827Y-84362857D02*
X169798541Y-84305714D01*
X169741398Y-84191429D01*
X169741398Y-83162857D01*
X170827112Y-84305714D02*
X170712826Y-84362857D01*
X170484255Y-84362857D01*
X170369969Y-84305714D01*
X170312826Y-84191429D01*
X170312826Y-83734286D01*
X170369969Y-83620000D01*
X170484255Y-83562857D01*
X170712826Y-83562857D01*
X170827112Y-83620000D01*
X170884255Y-83734286D01*
X170884255Y-83848571D01*
X170312826Y-83962857D01*
X172312826Y-84362857D02*
X172312826Y-83162857D01*
X172769969Y-83162857D01*
X172884255Y-83220000D01*
X172941398Y-83277143D01*
X172998541Y-83391429D01*
X172998541Y-83562857D01*
X172941398Y-83677143D01*
X172884255Y-83734286D01*
X172769969Y-83791429D01*
X172312826Y-83791429D01*
X173512826Y-84362857D02*
X173512826Y-83162857D01*
X174027112Y-84362857D02*
X174027112Y-83734286D01*
X173969969Y-83620000D01*
X173855683Y-83562857D01*
X173684255Y-83562857D01*
X173569969Y-83620000D01*
X173512826Y-83677143D01*
X174769969Y-84362857D02*
X174655683Y-84305714D01*
X174598540Y-84248571D01*
X174541397Y-84134286D01*
X174541397Y-83791429D01*
X174598540Y-83677143D01*
X174655683Y-83620000D01*
X174769969Y-83562857D01*
X174941397Y-83562857D01*
X175055683Y-83620000D01*
X175112826Y-83677143D01*
X175169969Y-83791429D01*
X175169969Y-84134286D01*
X175112826Y-84248571D01*
X175055683Y-84305714D01*
X174941397Y-84362857D01*
X174769969Y-84362857D01*
X175512826Y-83562857D02*
X175969969Y-83562857D01*
X175684254Y-83162857D02*
X175684254Y-84191429D01*
X175741397Y-84305714D01*
X175855683Y-84362857D01*
X175969969Y-84362857D01*
X176541397Y-84362857D02*
X176427111Y-84305714D01*
X176369968Y-84248571D01*
X176312825Y-84134286D01*
X176312825Y-83791429D01*
X176369968Y-83677143D01*
X176427111Y-83620000D01*
X176541397Y-83562857D01*
X176712825Y-83562857D01*
X176827111Y-83620000D01*
X176884254Y-83677143D01*
X176941397Y-83791429D01*
X176941397Y-84134286D01*
X176884254Y-84248571D01*
X176827111Y-84305714D01*
X176712825Y-84362857D01*
X176541397Y-84362857D01*
X177455682Y-83562857D02*
X177455682Y-84362857D01*
X177455682Y-83677143D02*
X177512825Y-83620000D01*
X177627111Y-83562857D01*
X177798539Y-83562857D01*
X177912825Y-83620000D01*
X177969968Y-83734286D01*
X177969968Y-84362857D01*
X173981143Y-56828666D02*
X174028762Y-56876285D01*
X174076381Y-57019142D01*
X174076381Y-57114380D01*
X174028762Y-57257238D01*
X173933524Y-57352476D01*
X173838286Y-57400095D01*
X173647810Y-57447714D01*
X173504952Y-57447714D01*
X173314476Y-57400095D01*
X173219238Y-57352476D01*
X173124000Y-57257238D01*
X173076381Y-57114380D01*
X173076381Y-57019142D01*
X173124000Y-56876285D01*
X173171619Y-56828666D01*
X174076381Y-55876285D02*
X174076381Y-56447714D01*
X174076381Y-56162000D02*
X173076381Y-56162000D01*
X173219238Y-56257238D01*
X173314476Y-56352476D01*
X173362095Y-56447714D01*
X151491334Y-106417143D02*
X151443715Y-106464762D01*
X151300858Y-106512381D01*
X151205620Y-106512381D01*
X151062762Y-106464762D01*
X150967524Y-106369524D01*
X150919905Y-106274286D01*
X150872286Y-106083810D01*
X150872286Y-105940952D01*
X150919905Y-105750476D01*
X150967524Y-105655238D01*
X151062762Y-105560000D01*
X151205620Y-105512381D01*
X151300858Y-105512381D01*
X151443715Y-105560000D01*
X151491334Y-105607619D01*
X151872286Y-105607619D02*
X151919905Y-105560000D01*
X152015143Y-105512381D01*
X152253239Y-105512381D01*
X152348477Y-105560000D01*
X152396096Y-105607619D01*
X152443715Y-105702857D01*
X152443715Y-105798095D01*
X152396096Y-105940952D01*
X151824667Y-106512381D01*
X152443715Y-106512381D01*
X155262381Y-62206095D02*
X154262381Y-62206095D01*
X154262381Y-61968000D01*
X154310000Y-61825142D01*
X154405238Y-61729904D01*
X154500476Y-61682285D01*
X154690952Y-61634666D01*
X154833810Y-61634666D01*
X155024286Y-61682285D01*
X155119524Y-61729904D01*
X155214762Y-61825142D01*
X155262381Y-61968000D01*
X155262381Y-62206095D01*
X155262381Y-60682285D02*
X155262381Y-61253714D01*
X155262381Y-60968000D02*
X154262381Y-60968000D01*
X154405238Y-61063238D01*
X154500476Y-61158476D01*
X154548095Y-61253714D01*
X184137667Y-48236381D02*
X184137667Y-48950667D01*
X184090047Y-49093524D01*
X183994809Y-49188762D01*
X183851952Y-49236381D01*
X183756714Y-49236381D01*
X185137667Y-49236381D02*
X184566238Y-49236381D01*
X184851952Y-49236381D02*
X184851952Y-48236381D01*
X184756714Y-48379238D01*
X184661476Y-48474476D01*
X184566238Y-48522095D01*
X147494667Y-113962381D02*
X147494667Y-114676667D01*
X147447047Y-114819524D01*
X147351809Y-114914762D01*
X147208952Y-114962381D01*
X147113714Y-114962381D01*
X147923238Y-114057619D02*
X147970857Y-114010000D01*
X148066095Y-113962381D01*
X148304191Y-113962381D01*
X148399429Y-114010000D01*
X148447048Y-114057619D01*
X148494667Y-114152857D01*
X148494667Y-114248095D01*
X148447048Y-114390952D01*
X147875619Y-114962381D01*
X148494667Y-114962381D01*
X176762381Y-117201333D02*
X177476667Y-117201333D01*
X177619524Y-117248953D01*
X177714762Y-117344191D01*
X177762381Y-117487048D01*
X177762381Y-117582286D01*
X176762381Y-116820381D02*
X176762381Y-116201333D01*
X177143333Y-116534667D01*
X177143333Y-116391809D01*
X177190952Y-116296571D01*
X177238571Y-116248952D01*
X177333810Y-116201333D01*
X177571905Y-116201333D01*
X177667143Y-116248952D01*
X177714762Y-116296571D01*
X177762381Y-116391809D01*
X177762381Y-116677524D01*
X177714762Y-116772762D01*
X177667143Y-116820381D01*
X159639334Y-62250381D02*
X159163143Y-62250381D01*
X159163143Y-61250381D01*
X160496477Y-62250381D02*
X159925048Y-62250381D01*
X160210762Y-62250381D02*
X160210762Y-61250381D01*
X160115524Y-61393238D01*
X160020286Y-61488476D01*
X159925048Y-61536095D01*
X173910381Y-57570666D02*
X173434190Y-57904000D01*
X173910381Y-58142095D02*
X172910381Y-58142095D01*
X172910381Y-57761142D01*
X172958000Y-57665904D01*
X173005619Y-57618285D01*
X173100857Y-57570666D01*
X173243714Y-57570666D01*
X173338952Y-57618285D01*
X173386571Y-57665904D01*
X173434190Y-57761142D01*
X173434190Y-58142095D01*
X173910381Y-56618285D02*
X173910381Y-57189714D01*
X173910381Y-56904000D02*
X172910381Y-56904000D01*
X173053238Y-56999238D01*
X173148476Y-57094476D01*
X173196095Y-57189714D01*
X150368095Y-95000381D02*
X150368095Y-95809905D01*
X150415714Y-95905143D01*
X150463333Y-95952762D01*
X150558571Y-96000381D01*
X150749048Y-96000381D01*
X150844286Y-95952762D01*
X150891905Y-95905143D01*
X150939524Y-95809905D01*
X150939524Y-95000381D01*
X151939524Y-96000381D02*
X151368095Y-96000381D01*
X151653809Y-96000381D02*
X151653809Y-95000381D01*
X151558571Y-95143238D01*
X151463333Y-95238476D01*
X151368095Y-95286095D01*
X153957619Y-117443238D02*
X153910000Y-117538476D01*
X153814762Y-117633714D01*
X153671905Y-117776571D01*
X153624286Y-117871810D01*
X153624286Y-117967048D01*
X153862381Y-117919429D02*
X153814762Y-118014667D01*
X153719524Y-118109905D01*
X153529048Y-118157524D01*
X153195714Y-118157524D01*
X153005238Y-118109905D01*
X152910000Y-118014667D01*
X152862381Y-117919429D01*
X152862381Y-117728952D01*
X152910000Y-117633714D01*
X153005238Y-117538476D01*
X153195714Y-117490857D01*
X153529048Y-117490857D01*
X153719524Y-117538476D01*
X153814762Y-117633714D01*
X153862381Y-117728952D01*
X153862381Y-117919429D01*
X153862381Y-116538476D02*
X153862381Y-117109905D01*
X153862381Y-116824191D02*
X152862381Y-116824191D01*
X153005238Y-116919429D01*
X153100476Y-117014667D01*
X153148095Y-117109905D01*
M02*
