G04 #@! TF.FileFunction,Copper,L2,Bot,Signal*
%FSLAX46Y46*%
G04 Gerber Fmt 4.6, Leading zero omitted, Abs format (unit mm)*
G04 Created by KiCad (PCBNEW 4.0.7) date 11/12/17 23:12:21*
%MOMM*%
%LPD*%
G01*
G04 APERTURE LIST*
%ADD10C,0.100000*%
%ADD11R,1.900000X1.900000*%
%ADD12C,1.900000*%
%ADD13R,1.600000X1.600000*%
%ADD14C,1.600000*%
%ADD15R,2.200000X2.200000*%
%ADD16O,2.200000X2.200000*%
%ADD17R,1.700000X1.700000*%
%ADD18O,1.700000X1.700000*%
%ADD19C,2.400000*%
%ADD20R,2.400000X2.400000*%
%ADD21C,2.600000*%
%ADD22O,1.600000X1.600000*%
%ADD23C,6.400000*%
%ADD24R,1.800000X1.800000*%
%ADD25O,1.800000X1.800000*%
%ADD26C,0.500000*%
%ADD27C,0.250000*%
%ADD28C,0.254000*%
G04 APERTURE END LIST*
D10*
D11*
X162308540Y-69861720D03*
D12*
X162308540Y-72401720D03*
X162308540Y-74941720D03*
X162308540Y-77481720D03*
X162308540Y-80021720D03*
X162308540Y-82561720D03*
X162308540Y-85101720D03*
X162308540Y-87641720D03*
X162308540Y-90181720D03*
X162308540Y-92721720D03*
X162308540Y-95261720D03*
X162308540Y-97801720D03*
X180088540Y-69861720D03*
X180088540Y-72401720D03*
X180088540Y-74941720D03*
X180088540Y-77481720D03*
X180088540Y-80021720D03*
X180088540Y-82561720D03*
X180088540Y-85101720D03*
X180088540Y-87641720D03*
X180088540Y-90181720D03*
X180088540Y-92721720D03*
X180088540Y-95261720D03*
X180088540Y-97801720D03*
D13*
X169164000Y-55412000D03*
D14*
X169164000Y-57912000D03*
D13*
X152908000Y-101600000D03*
D14*
X150408000Y-101600000D03*
D15*
X152400000Y-56388000D03*
D16*
X152400000Y-66548000D03*
D17*
X180086000Y-51054000D03*
D18*
X180086000Y-53594000D03*
X180086000Y-56134000D03*
D17*
X146558000Y-116840000D03*
D18*
X149098000Y-116840000D03*
X146558000Y-119380000D03*
X149098000Y-119380000D03*
X146558000Y-121920000D03*
X149098000Y-121920000D03*
D19*
X181610000Y-115118000D03*
D20*
X181610000Y-118618000D03*
D21*
X162306000Y-56388000D03*
X157306000Y-56388000D03*
D14*
X175768000Y-61214000D03*
D22*
X175768000Y-53594000D03*
D13*
X154940000Y-93218000D03*
D22*
X147320000Y-75438000D03*
X154940000Y-90678000D03*
X147320000Y-77978000D03*
X154940000Y-88138000D03*
X147320000Y-80518000D03*
X154940000Y-85598000D03*
X147320000Y-83058000D03*
X154940000Y-83058000D03*
X147320000Y-85598000D03*
X154940000Y-80518000D03*
X147320000Y-88138000D03*
X154940000Y-77978000D03*
X147320000Y-90678000D03*
X154940000Y-75438000D03*
X147320000Y-93218000D03*
D23*
X147066000Y-53086000D03*
X163068000Y-120142000D03*
D24*
X173990000Y-119888000D03*
D25*
X173990000Y-117348000D03*
X173990000Y-114808000D03*
D26*
X154940000Y-77978000D02*
X156190001Y-76727999D01*
X156190001Y-76727999D02*
X156190001Y-74530259D01*
X156190001Y-74530259D02*
X160858540Y-69861720D01*
X160858540Y-69861720D02*
X162308540Y-69861720D01*
D27*
X178524001Y-51515999D02*
X178524001Y-58457999D01*
X178524001Y-58457999D02*
X175768000Y-61214000D01*
X179324000Y-69097180D02*
X180088540Y-69861720D01*
X180086000Y-51054000D02*
X178986000Y-51054000D01*
X178986000Y-51054000D02*
X178524001Y-51515999D01*
D28*
G36*
X183694000Y-124766000D02*
X142950000Y-124766000D01*
X142950000Y-119380000D01*
X145043907Y-119380000D01*
X145156946Y-119948285D01*
X145478853Y-120430054D01*
X145808026Y-120650000D01*
X145478853Y-120869946D01*
X145156946Y-121351715D01*
X145043907Y-121920000D01*
X145156946Y-122488285D01*
X145478853Y-122970054D01*
X145960622Y-123291961D01*
X146528907Y-123405000D01*
X146587093Y-123405000D01*
X147155378Y-123291961D01*
X147637147Y-122970054D01*
X147826345Y-122686899D01*
X147826355Y-122686924D01*
X148216642Y-123115183D01*
X148741108Y-123361486D01*
X148971000Y-123240819D01*
X148971000Y-122047000D01*
X149225000Y-122047000D01*
X149225000Y-123240819D01*
X149454892Y-123361486D01*
X149979358Y-123115183D01*
X150191036Y-122882910D01*
X160506695Y-122882910D01*
X160873640Y-123378343D01*
X162279171Y-123971736D01*
X163804793Y-123982087D01*
X165218246Y-123407819D01*
X165262360Y-123378343D01*
X165629305Y-122882910D01*
X163068000Y-120321605D01*
X160506695Y-122882910D01*
X150191036Y-122882910D01*
X150369645Y-122686924D01*
X150539476Y-122276890D01*
X150418155Y-122047000D01*
X149225000Y-122047000D01*
X148971000Y-122047000D01*
X148951000Y-122047000D01*
X148951000Y-121793000D01*
X148971000Y-121793000D01*
X148971000Y-119507000D01*
X149225000Y-119507000D01*
X149225000Y-121793000D01*
X150418155Y-121793000D01*
X150539476Y-121563110D01*
X150369645Y-121153076D01*
X150119682Y-120878793D01*
X159227913Y-120878793D01*
X159802181Y-122292246D01*
X159831657Y-122336360D01*
X160327090Y-122703305D01*
X162888395Y-120142000D01*
X163247605Y-120142000D01*
X165808910Y-122703305D01*
X166304343Y-122336360D01*
X166897736Y-120930829D01*
X166908087Y-119405207D01*
X166738582Y-118988000D01*
X172442560Y-118988000D01*
X172442560Y-120788000D01*
X172486838Y-121023317D01*
X172625910Y-121239441D01*
X172838110Y-121384431D01*
X173090000Y-121435440D01*
X174890000Y-121435440D01*
X175125317Y-121391162D01*
X175341441Y-121252090D01*
X175486431Y-121039890D01*
X175537440Y-120788000D01*
X175537440Y-118988000D01*
X175493162Y-118752683D01*
X175354090Y-118536559D01*
X175141890Y-118391569D01*
X175125656Y-118388281D01*
X175408155Y-117965491D01*
X175517057Y-117418000D01*
X179762560Y-117418000D01*
X179762560Y-119818000D01*
X179806838Y-120053317D01*
X179945910Y-120269441D01*
X180158110Y-120414431D01*
X180410000Y-120465440D01*
X182810000Y-120465440D01*
X183045317Y-120421162D01*
X183261441Y-120282090D01*
X183406431Y-120069890D01*
X183457440Y-119818000D01*
X183457440Y-117418000D01*
X183413162Y-117182683D01*
X183274090Y-116966559D01*
X183061890Y-116821569D01*
X182810000Y-116770560D01*
X182415712Y-116770560D01*
X182648086Y-116674545D01*
X183164730Y-116158801D01*
X183444681Y-115484605D01*
X183445318Y-114754597D01*
X183166545Y-114079914D01*
X182650801Y-113563270D01*
X181976605Y-113283319D01*
X181246597Y-113282682D01*
X180571914Y-113561455D01*
X180055270Y-114077199D01*
X179775319Y-114751395D01*
X179774682Y-115481403D01*
X180053455Y-116156086D01*
X180569199Y-116672730D01*
X180804799Y-116770560D01*
X180410000Y-116770560D01*
X180174683Y-116814838D01*
X179958559Y-116953910D01*
X179813569Y-117166110D01*
X179762560Y-117418000D01*
X175517057Y-117418000D01*
X175525000Y-117378072D01*
X175525000Y-117317928D01*
X175408155Y-116730509D01*
X175075409Y-116232519D01*
X174837418Y-116073499D01*
X175227966Y-115715576D01*
X175481046Y-115172742D01*
X175360997Y-114935000D01*
X174117000Y-114935000D01*
X174117000Y-114955000D01*
X173863000Y-114955000D01*
X173863000Y-114935000D01*
X172619003Y-114935000D01*
X172498954Y-115172742D01*
X172752034Y-115715576D01*
X173142582Y-116073499D01*
X172904591Y-116232519D01*
X172571845Y-116730509D01*
X172455000Y-117317928D01*
X172455000Y-117378072D01*
X172571845Y-117965491D01*
X172852837Y-118386026D01*
X172638559Y-118523910D01*
X172493569Y-118736110D01*
X172442560Y-118988000D01*
X166738582Y-118988000D01*
X166333819Y-117991754D01*
X166304343Y-117947640D01*
X165808910Y-117580695D01*
X163247605Y-120142000D01*
X162888395Y-120142000D01*
X160327090Y-117580695D01*
X159831657Y-117947640D01*
X159238264Y-119353171D01*
X159227913Y-120878793D01*
X150119682Y-120878793D01*
X149979358Y-120724817D01*
X149820046Y-120650000D01*
X149979358Y-120575183D01*
X150369645Y-120146924D01*
X150539476Y-119736890D01*
X150418155Y-119507000D01*
X149225000Y-119507000D01*
X148971000Y-119507000D01*
X148951000Y-119507000D01*
X148951000Y-119253000D01*
X148971000Y-119253000D01*
X148971000Y-116967000D01*
X149225000Y-116967000D01*
X149225000Y-119253000D01*
X150418155Y-119253000D01*
X150539476Y-119023110D01*
X150369645Y-118613076D01*
X149979358Y-118184817D01*
X149820046Y-118110000D01*
X149979358Y-118035183D01*
X150369645Y-117606924D01*
X150454898Y-117401090D01*
X160506695Y-117401090D01*
X163068000Y-119962395D01*
X165629305Y-117401090D01*
X165262360Y-116905657D01*
X163856829Y-116312264D01*
X162331207Y-116301913D01*
X160917754Y-116876181D01*
X160873640Y-116905657D01*
X160506695Y-117401090D01*
X150454898Y-117401090D01*
X150539476Y-117196890D01*
X150418155Y-116967000D01*
X149225000Y-116967000D01*
X148971000Y-116967000D01*
X148951000Y-116967000D01*
X148951000Y-116713000D01*
X148971000Y-116713000D01*
X148971000Y-115519181D01*
X149225000Y-115519181D01*
X149225000Y-116713000D01*
X150418155Y-116713000D01*
X150539476Y-116483110D01*
X150369645Y-116073076D01*
X149979358Y-115644817D01*
X149454892Y-115398514D01*
X149225000Y-115519181D01*
X148971000Y-115519181D01*
X148741108Y-115398514D01*
X148216642Y-115644817D01*
X148029192Y-115850504D01*
X148011162Y-115754683D01*
X147872090Y-115538559D01*
X147659890Y-115393569D01*
X147408000Y-115342560D01*
X145708000Y-115342560D01*
X145472683Y-115386838D01*
X145256559Y-115525910D01*
X145111569Y-115738110D01*
X145060560Y-115990000D01*
X145060560Y-117690000D01*
X145104838Y-117925317D01*
X145243910Y-118141441D01*
X145456110Y-118286431D01*
X145523541Y-118300086D01*
X145478853Y-118329946D01*
X145156946Y-118811715D01*
X145043907Y-119380000D01*
X142950000Y-119380000D01*
X142950000Y-114443258D01*
X172498954Y-114443258D01*
X172619003Y-114681000D01*
X173863000Y-114681000D01*
X173863000Y-113437622D01*
X174117000Y-113437622D01*
X174117000Y-114681000D01*
X175360997Y-114681000D01*
X175481046Y-114443258D01*
X175227966Y-113900424D01*
X174786417Y-113495760D01*
X174354740Y-113316964D01*
X174117000Y-113437622D01*
X173863000Y-113437622D01*
X173625260Y-113316964D01*
X173193583Y-113495760D01*
X172752034Y-113900424D01*
X172498954Y-114443258D01*
X142950000Y-114443258D01*
X142950000Y-102607745D01*
X149579861Y-102607745D01*
X149653995Y-102853864D01*
X150191223Y-103046965D01*
X150761454Y-103019778D01*
X151162005Y-102853864D01*
X151236139Y-102607745D01*
X150408000Y-101779605D01*
X149579861Y-102607745D01*
X142950000Y-102607745D01*
X142950000Y-101383223D01*
X148961035Y-101383223D01*
X148988222Y-101953454D01*
X149154136Y-102354005D01*
X149400255Y-102428139D01*
X150228395Y-101600000D01*
X150587605Y-101600000D01*
X151415745Y-102428139D01*
X151463167Y-102413855D01*
X151504838Y-102635317D01*
X151643910Y-102851441D01*
X151856110Y-102996431D01*
X152108000Y-103047440D01*
X153708000Y-103047440D01*
X153943317Y-103003162D01*
X154159441Y-102864090D01*
X154304431Y-102651890D01*
X154355440Y-102400000D01*
X154355440Y-100800000D01*
X154311162Y-100564683D01*
X154172090Y-100348559D01*
X153959890Y-100203569D01*
X153708000Y-100152560D01*
X152108000Y-100152560D01*
X151872683Y-100196838D01*
X151656559Y-100335910D01*
X151511569Y-100548110D01*
X151463354Y-100786201D01*
X151415745Y-100771861D01*
X150587605Y-101600000D01*
X150228395Y-101600000D01*
X149400255Y-100771861D01*
X149154136Y-100845995D01*
X148961035Y-101383223D01*
X142950000Y-101383223D01*
X142950000Y-100592255D01*
X149579861Y-100592255D01*
X150408000Y-101420395D01*
X151236139Y-100592255D01*
X151162005Y-100346136D01*
X150624777Y-100153035D01*
X150054546Y-100180222D01*
X149653995Y-100346136D01*
X149579861Y-100592255D01*
X142950000Y-100592255D01*
X142950000Y-88138000D01*
X145856887Y-88138000D01*
X145966120Y-88687151D01*
X146277189Y-89152698D01*
X146659275Y-89408000D01*
X146277189Y-89663302D01*
X145966120Y-90128849D01*
X145856887Y-90678000D01*
X145966120Y-91227151D01*
X146277189Y-91692698D01*
X146659275Y-91948000D01*
X146277189Y-92203302D01*
X145966120Y-92668849D01*
X145856887Y-93218000D01*
X145966120Y-93767151D01*
X146277189Y-94232698D01*
X146742736Y-94543767D01*
X147291887Y-94653000D01*
X147348113Y-94653000D01*
X147897264Y-94543767D01*
X148362811Y-94232698D01*
X148673880Y-93767151D01*
X148783113Y-93218000D01*
X148673880Y-92668849D01*
X148362811Y-92203302D01*
X147980725Y-91948000D01*
X148362811Y-91692698D01*
X148673880Y-91227151D01*
X148783113Y-90678000D01*
X148673880Y-90128849D01*
X148362811Y-89663302D01*
X147980725Y-89408000D01*
X148362811Y-89152698D01*
X148673880Y-88687151D01*
X148783113Y-88138000D01*
X148673880Y-87588849D01*
X148362811Y-87123302D01*
X147958297Y-86853014D01*
X148175134Y-86750389D01*
X148551041Y-86335423D01*
X148711904Y-85947039D01*
X148589915Y-85725000D01*
X147447000Y-85725000D01*
X147447000Y-85745000D01*
X147193000Y-85745000D01*
X147193000Y-85725000D01*
X146050085Y-85725000D01*
X145928096Y-85947039D01*
X146088959Y-86335423D01*
X146464866Y-86750389D01*
X146681703Y-86853014D01*
X146277189Y-87123302D01*
X145966120Y-87588849D01*
X145856887Y-88138000D01*
X142950000Y-88138000D01*
X142950000Y-85598000D01*
X153476887Y-85598000D01*
X153586120Y-86147151D01*
X153897189Y-86612698D01*
X154279275Y-86868000D01*
X153897189Y-87123302D01*
X153586120Y-87588849D01*
X153476887Y-88138000D01*
X153586120Y-88687151D01*
X153897189Y-89152698D01*
X154279275Y-89408000D01*
X153897189Y-89663302D01*
X153586120Y-90128849D01*
X153476887Y-90678000D01*
X153586120Y-91227151D01*
X153897189Y-91692698D01*
X154041465Y-91789101D01*
X153904683Y-91814838D01*
X153688559Y-91953910D01*
X153543569Y-92166110D01*
X153492560Y-92418000D01*
X153492560Y-94018000D01*
X153536838Y-94253317D01*
X153675910Y-94469441D01*
X153888110Y-94614431D01*
X154140000Y-94665440D01*
X155740000Y-94665440D01*
X155975317Y-94621162D01*
X156191441Y-94482090D01*
X156336431Y-94269890D01*
X156387440Y-94018000D01*
X156387440Y-92418000D01*
X156343162Y-92182683D01*
X156204090Y-91966559D01*
X155991890Y-91821569D01*
X155836911Y-91790185D01*
X155982811Y-91692698D01*
X156293880Y-91227151D01*
X156403113Y-90678000D01*
X156293880Y-90128849D01*
X155982811Y-89663302D01*
X155600725Y-89408000D01*
X155982811Y-89152698D01*
X156293880Y-88687151D01*
X156403113Y-88138000D01*
X156293880Y-87588849D01*
X155982811Y-87123302D01*
X155600725Y-86868000D01*
X155982811Y-86612698D01*
X156293880Y-86147151D01*
X156403113Y-85598000D01*
X156293880Y-85048849D01*
X155982811Y-84583302D01*
X155578297Y-84313014D01*
X155795134Y-84210389D01*
X156171041Y-83795423D01*
X156331904Y-83407039D01*
X156209915Y-83185000D01*
X155067000Y-83185000D01*
X155067000Y-83205000D01*
X154813000Y-83205000D01*
X154813000Y-83185000D01*
X153670085Y-83185000D01*
X153548096Y-83407039D01*
X153708959Y-83795423D01*
X154084866Y-84210389D01*
X154301703Y-84313014D01*
X153897189Y-84583302D01*
X153586120Y-85048849D01*
X153476887Y-85598000D01*
X142950000Y-85598000D01*
X142950000Y-83407039D01*
X145928096Y-83407039D01*
X146088959Y-83795423D01*
X146464866Y-84210389D01*
X146713367Y-84328000D01*
X146464866Y-84445611D01*
X146088959Y-84860577D01*
X145928096Y-85248961D01*
X146050085Y-85471000D01*
X147193000Y-85471000D01*
X147193000Y-83185000D01*
X147447000Y-83185000D01*
X147447000Y-85471000D01*
X148589915Y-85471000D01*
X148711904Y-85248961D01*
X148551041Y-84860577D01*
X148175134Y-84445611D01*
X147926633Y-84328000D01*
X148175134Y-84210389D01*
X148551041Y-83795423D01*
X148711904Y-83407039D01*
X148589915Y-83185000D01*
X147447000Y-83185000D01*
X147193000Y-83185000D01*
X146050085Y-83185000D01*
X145928096Y-83407039D01*
X142950000Y-83407039D01*
X142950000Y-77978000D01*
X145856887Y-77978000D01*
X145966120Y-78527151D01*
X146277189Y-78992698D01*
X146659275Y-79248000D01*
X146277189Y-79503302D01*
X145966120Y-79968849D01*
X145856887Y-80518000D01*
X145966120Y-81067151D01*
X146277189Y-81532698D01*
X146681703Y-81802986D01*
X146464866Y-81905611D01*
X146088959Y-82320577D01*
X145928096Y-82708961D01*
X146050085Y-82931000D01*
X147193000Y-82931000D01*
X147193000Y-82911000D01*
X147447000Y-82911000D01*
X147447000Y-82931000D01*
X148589915Y-82931000D01*
X148711904Y-82708961D01*
X148551041Y-82320577D01*
X148175134Y-81905611D01*
X147958297Y-81802986D01*
X148362811Y-81532698D01*
X148673880Y-81067151D01*
X148783113Y-80518000D01*
X148673880Y-79968849D01*
X148362811Y-79503302D01*
X147980725Y-79248000D01*
X148362811Y-78992698D01*
X148673880Y-78527151D01*
X148783113Y-77978000D01*
X148673880Y-77428849D01*
X148362811Y-76963302D01*
X147958297Y-76693014D01*
X148175134Y-76590389D01*
X148551041Y-76175423D01*
X148711904Y-75787039D01*
X148589915Y-75565000D01*
X147447000Y-75565000D01*
X147447000Y-75585000D01*
X147193000Y-75585000D01*
X147193000Y-75565000D01*
X146050085Y-75565000D01*
X145928096Y-75787039D01*
X146088959Y-76175423D01*
X146464866Y-76590389D01*
X146681703Y-76693014D01*
X146277189Y-76963302D01*
X145966120Y-77428849D01*
X145856887Y-77978000D01*
X142950000Y-77978000D01*
X142950000Y-75438000D01*
X153476887Y-75438000D01*
X153586120Y-75987151D01*
X153897189Y-76452698D01*
X154279275Y-76708000D01*
X153897189Y-76963302D01*
X153586120Y-77428849D01*
X153476887Y-77978000D01*
X153586120Y-78527151D01*
X153897189Y-78992698D01*
X154279275Y-79248000D01*
X153897189Y-79503302D01*
X153586120Y-79968849D01*
X153476887Y-80518000D01*
X153586120Y-81067151D01*
X153897189Y-81532698D01*
X154301703Y-81802986D01*
X154084866Y-81905611D01*
X153708959Y-82320577D01*
X153548096Y-82708961D01*
X153670085Y-82931000D01*
X154813000Y-82931000D01*
X154813000Y-82911000D01*
X155067000Y-82911000D01*
X155067000Y-82931000D01*
X156209915Y-82931000D01*
X156331904Y-82708961D01*
X156171041Y-82320577D01*
X155795134Y-81905611D01*
X155578297Y-81802986D01*
X155982811Y-81532698D01*
X156293880Y-81067151D01*
X156403113Y-80518000D01*
X156293880Y-79968849D01*
X155982811Y-79503302D01*
X155600725Y-79248000D01*
X155982811Y-78992698D01*
X156293880Y-78527151D01*
X156403113Y-77978000D01*
X156368017Y-77801562D01*
X156815788Y-77353791D01*
X156815791Y-77353789D01*
X157007634Y-77066674D01*
X157075001Y-76727999D01*
X157075001Y-75255613D01*
X160723265Y-75255613D01*
X160964059Y-75838377D01*
X161337011Y-76211981D01*
X160965626Y-76582717D01*
X160723816Y-77165061D01*
X160723265Y-77795613D01*
X160964059Y-78378377D01*
X161337011Y-78751981D01*
X160965626Y-79122717D01*
X160723816Y-79705061D01*
X160723265Y-80335613D01*
X160964059Y-80918377D01*
X161337011Y-81291981D01*
X160965626Y-81662717D01*
X160723816Y-82245061D01*
X160723265Y-82875613D01*
X160964059Y-83458377D01*
X161337011Y-83831981D01*
X160965626Y-84202717D01*
X160723816Y-84785061D01*
X160723265Y-85415613D01*
X160964059Y-85998377D01*
X161337011Y-86371981D01*
X160965626Y-86742717D01*
X160723816Y-87325061D01*
X160723265Y-87955613D01*
X160964059Y-88538377D01*
X161337011Y-88911981D01*
X160965626Y-89282717D01*
X160723816Y-89865061D01*
X160723265Y-90495613D01*
X160964059Y-91078377D01*
X161337011Y-91451981D01*
X160965626Y-91822717D01*
X160723816Y-92405061D01*
X160723265Y-93035613D01*
X160964059Y-93618377D01*
X161337011Y-93991981D01*
X160965626Y-94362717D01*
X160723816Y-94945061D01*
X160723265Y-95575613D01*
X160964059Y-96158377D01*
X161337011Y-96531981D01*
X160965626Y-96902717D01*
X160723816Y-97485061D01*
X160723265Y-98115613D01*
X160964059Y-98698377D01*
X161409537Y-99144634D01*
X161991881Y-99386444D01*
X162622433Y-99386995D01*
X163195000Y-99150414D01*
X163195000Y-106680000D01*
X163203685Y-106726159D01*
X163230965Y-106768553D01*
X163272590Y-106796994D01*
X163322000Y-106807000D01*
X179070000Y-106807000D01*
X179116159Y-106798315D01*
X179158553Y-106771035D01*
X179186994Y-106729410D01*
X179197000Y-106680000D01*
X179197000Y-99147733D01*
X179771881Y-99386444D01*
X180402433Y-99386995D01*
X180985197Y-99146201D01*
X181431454Y-98700723D01*
X181673264Y-98118379D01*
X181673815Y-97487827D01*
X181433021Y-96905063D01*
X181060069Y-96531459D01*
X181431454Y-96160723D01*
X181673264Y-95578379D01*
X181673815Y-94947827D01*
X181433021Y-94365063D01*
X181060069Y-93991459D01*
X181431454Y-93620723D01*
X181673264Y-93038379D01*
X181673815Y-92407827D01*
X181433021Y-91825063D01*
X181060069Y-91451459D01*
X181431454Y-91080723D01*
X181673264Y-90498379D01*
X181673815Y-89867827D01*
X181433021Y-89285063D01*
X181060069Y-88911459D01*
X181431454Y-88540723D01*
X181673264Y-87958379D01*
X181673815Y-87327827D01*
X181433021Y-86745063D01*
X181060069Y-86371459D01*
X181431454Y-86000723D01*
X181673264Y-85418379D01*
X181673815Y-84787827D01*
X181433021Y-84205063D01*
X181060069Y-83831459D01*
X181431454Y-83460723D01*
X181673264Y-82878379D01*
X181673815Y-82247827D01*
X181433021Y-81665063D01*
X181060069Y-81291459D01*
X181431454Y-80920723D01*
X181673264Y-80338379D01*
X181673815Y-79707827D01*
X181433021Y-79125063D01*
X180994329Y-78685604D01*
X181025285Y-78598070D01*
X180088540Y-77661325D01*
X179151795Y-78598070D01*
X179182947Y-78686159D01*
X178745626Y-79122717D01*
X178503816Y-79705061D01*
X178503265Y-80335613D01*
X178744059Y-80918377D01*
X179117011Y-81291981D01*
X178745626Y-81662717D01*
X178503816Y-82245061D01*
X178503265Y-82875613D01*
X178744059Y-83458377D01*
X179117011Y-83831981D01*
X178745626Y-84202717D01*
X178503816Y-84785061D01*
X178503265Y-85415613D01*
X178744059Y-85998377D01*
X179117011Y-86371981D01*
X178745626Y-86742717D01*
X178503816Y-87325061D01*
X178503265Y-87955613D01*
X178744059Y-88538377D01*
X179117011Y-88911981D01*
X178745626Y-89282717D01*
X178503816Y-89865061D01*
X178503265Y-90495613D01*
X178744059Y-91078377D01*
X179117011Y-91451981D01*
X178745626Y-91822717D01*
X178503816Y-92405061D01*
X178503265Y-93035613D01*
X178744059Y-93618377D01*
X178978272Y-93853000D01*
X163418771Y-93853000D01*
X163651454Y-93620723D01*
X163893264Y-93038379D01*
X163893815Y-92407827D01*
X163653021Y-91825063D01*
X163280069Y-91451459D01*
X163651454Y-91080723D01*
X163893264Y-90498379D01*
X163893815Y-89867827D01*
X163653021Y-89285063D01*
X163280069Y-88911459D01*
X163651454Y-88540723D01*
X163893264Y-87958379D01*
X163893815Y-87327827D01*
X163653021Y-86745063D01*
X163280069Y-86371459D01*
X163651454Y-86000723D01*
X163893264Y-85418379D01*
X163893815Y-84787827D01*
X163653021Y-84205063D01*
X163280069Y-83831459D01*
X163651454Y-83460723D01*
X163893264Y-82878379D01*
X163893815Y-82247827D01*
X163653021Y-81665063D01*
X163280069Y-81291459D01*
X163651454Y-80920723D01*
X163893264Y-80338379D01*
X163893815Y-79707827D01*
X163653021Y-79125063D01*
X163280069Y-78751459D01*
X163651454Y-78380723D01*
X163893264Y-77798379D01*
X163893761Y-77229118D01*
X178492352Y-77229118D01*
X178517188Y-77859181D01*
X178710521Y-78325928D01*
X178972190Y-78418465D01*
X179908935Y-77481720D01*
X180268145Y-77481720D01*
X181204890Y-78418465D01*
X181466559Y-78325928D01*
X181684728Y-77734322D01*
X181659892Y-77104259D01*
X181466559Y-76637512D01*
X181204890Y-76544975D01*
X180268145Y-77481720D01*
X179908935Y-77481720D01*
X178972190Y-76544975D01*
X178710521Y-76637512D01*
X178492352Y-77229118D01*
X163893761Y-77229118D01*
X163893815Y-77167827D01*
X163653021Y-76585063D01*
X163280069Y-76211459D01*
X163651454Y-75840723D01*
X163893264Y-75258379D01*
X163893815Y-74627827D01*
X163653021Y-74045063D01*
X163214329Y-73605604D01*
X163245285Y-73518070D01*
X162308540Y-72581325D01*
X161371795Y-73518070D01*
X161402947Y-73606159D01*
X160965626Y-74042717D01*
X160723816Y-74625061D01*
X160723265Y-75255613D01*
X157075001Y-75255613D01*
X157075001Y-74896839D01*
X160821714Y-71150126D01*
X160894450Y-71263161D01*
X161106650Y-71408151D01*
X161142654Y-71415442D01*
X161192188Y-71464976D01*
X160930521Y-71557512D01*
X160712352Y-72149118D01*
X160737188Y-72779181D01*
X160930521Y-73245928D01*
X161192190Y-73338465D01*
X162128935Y-72401720D01*
X162114793Y-72387578D01*
X162294398Y-72207973D01*
X162308540Y-72222115D01*
X162322683Y-72207973D01*
X162502288Y-72387578D01*
X162488145Y-72401720D01*
X163424890Y-73338465D01*
X163686559Y-73245928D01*
X163904728Y-72654322D01*
X163879892Y-72024259D01*
X163686559Y-71557512D01*
X163424892Y-71464976D01*
X163470612Y-71419256D01*
X163493857Y-71414882D01*
X163709981Y-71275810D01*
X163854971Y-71063610D01*
X163905980Y-70811720D01*
X163905980Y-70175613D01*
X178503265Y-70175613D01*
X178744059Y-70758377D01*
X179117011Y-71131981D01*
X178745626Y-71502717D01*
X178503816Y-72085061D01*
X178503265Y-72715613D01*
X178744059Y-73298377D01*
X179117011Y-73671981D01*
X178745626Y-74042717D01*
X178503816Y-74625061D01*
X178503265Y-75255613D01*
X178744059Y-75838377D01*
X179182751Y-76277836D01*
X179151795Y-76365370D01*
X180088540Y-77302115D01*
X181025285Y-76365370D01*
X180994133Y-76277281D01*
X181431454Y-75840723D01*
X181673264Y-75258379D01*
X181673815Y-74627827D01*
X181433021Y-74045063D01*
X181060069Y-73671459D01*
X181431454Y-73300723D01*
X181673264Y-72718379D01*
X181673815Y-72087827D01*
X181433021Y-71505063D01*
X181060069Y-71131459D01*
X181431454Y-70760723D01*
X181673264Y-70178379D01*
X181673815Y-69547827D01*
X181433021Y-68965063D01*
X180987543Y-68518806D01*
X180405199Y-68276996D01*
X179774647Y-68276445D01*
X179528979Y-68377953D01*
X179324000Y-68337180D01*
X179033161Y-68395032D01*
X178786599Y-68559779D01*
X178621852Y-68806341D01*
X178564000Y-69097180D01*
X178604742Y-69302003D01*
X178503816Y-69545061D01*
X178503265Y-70175613D01*
X163905980Y-70175613D01*
X163905980Y-68911720D01*
X163861702Y-68676403D01*
X163722630Y-68460279D01*
X163510430Y-68315289D01*
X163258540Y-68264280D01*
X161358540Y-68264280D01*
X161123223Y-68308558D01*
X160907099Y-68447630D01*
X160762109Y-68659830D01*
X160711100Y-68911720D01*
X160711100Y-69006047D01*
X160519865Y-69044087D01*
X160232750Y-69235930D01*
X160232748Y-69235933D01*
X155564211Y-73904469D01*
X155436167Y-74096102D01*
X154968113Y-74003000D01*
X154911887Y-74003000D01*
X154362736Y-74112233D01*
X153897189Y-74423302D01*
X153586120Y-74888849D01*
X153476887Y-75438000D01*
X142950000Y-75438000D01*
X142950000Y-75088961D01*
X145928096Y-75088961D01*
X146050085Y-75311000D01*
X147193000Y-75311000D01*
X147193000Y-74167371D01*
X147447000Y-74167371D01*
X147447000Y-75311000D01*
X148589915Y-75311000D01*
X148711904Y-75088961D01*
X148551041Y-74700577D01*
X148175134Y-74285611D01*
X147669041Y-74046086D01*
X147447000Y-74167371D01*
X147193000Y-74167371D01*
X146970959Y-74046086D01*
X146464866Y-74285611D01*
X146088959Y-74700577D01*
X145928096Y-75088961D01*
X142950000Y-75088961D01*
X142950000Y-66944123D01*
X150710817Y-66944123D01*
X150990988Y-67560392D01*
X151485668Y-68022534D01*
X152003878Y-68237175D01*
X152273000Y-68119125D01*
X152273000Y-66675000D01*
X152527000Y-66675000D01*
X152527000Y-68119125D01*
X152796122Y-68237175D01*
X153314332Y-68022534D01*
X153809012Y-67560392D01*
X154089183Y-66944123D01*
X153971604Y-66675000D01*
X152527000Y-66675000D01*
X152273000Y-66675000D01*
X150828396Y-66675000D01*
X150710817Y-66944123D01*
X142950000Y-66944123D01*
X142950000Y-66151877D01*
X150710817Y-66151877D01*
X150828396Y-66421000D01*
X152273000Y-66421000D01*
X152273000Y-64976875D01*
X152527000Y-64976875D01*
X152527000Y-66421000D01*
X153971604Y-66421000D01*
X154089183Y-66151877D01*
X153809012Y-65535608D01*
X153314332Y-65073466D01*
X152796122Y-64858825D01*
X152527000Y-64976875D01*
X152273000Y-64976875D01*
X152003878Y-64858825D01*
X151485668Y-65073466D01*
X150990988Y-65535608D01*
X150710817Y-66151877D01*
X142950000Y-66151877D01*
X142950000Y-61498187D01*
X174332752Y-61498187D01*
X174550757Y-62025800D01*
X174954077Y-62429824D01*
X175481309Y-62648750D01*
X176052187Y-62649248D01*
X176579800Y-62431243D01*
X176983824Y-62027923D01*
X177202750Y-61500691D01*
X177203248Y-60929813D01*
X177180951Y-60875851D01*
X179061402Y-58995400D01*
X179226149Y-58748838D01*
X179284001Y-58457999D01*
X179284001Y-57366452D01*
X179729108Y-57575486D01*
X179959000Y-57454819D01*
X179959000Y-56261000D01*
X180213000Y-56261000D01*
X180213000Y-57454819D01*
X180442892Y-57575486D01*
X180967358Y-57329183D01*
X181357645Y-56900924D01*
X181527476Y-56490890D01*
X181406155Y-56261000D01*
X180213000Y-56261000D01*
X179959000Y-56261000D01*
X179939000Y-56261000D01*
X179939000Y-56007000D01*
X179959000Y-56007000D01*
X179959000Y-55987000D01*
X180213000Y-55987000D01*
X180213000Y-56007000D01*
X181406155Y-56007000D01*
X181527476Y-55777110D01*
X181357645Y-55367076D01*
X180967358Y-54938817D01*
X180824447Y-54871702D01*
X181165147Y-54644054D01*
X181487054Y-54162285D01*
X181600093Y-53594000D01*
X181487054Y-53025715D01*
X181165147Y-52543946D01*
X181123548Y-52516150D01*
X181171317Y-52507162D01*
X181387441Y-52368090D01*
X181532431Y-52155890D01*
X181583440Y-51904000D01*
X181583440Y-50204000D01*
X181539162Y-49968683D01*
X181400090Y-49752559D01*
X181187890Y-49607569D01*
X180936000Y-49556560D01*
X179236000Y-49556560D01*
X179000683Y-49600838D01*
X178784559Y-49739910D01*
X178639569Y-49952110D01*
X178588560Y-50204000D01*
X178588560Y-50423080D01*
X178448599Y-50516599D01*
X177986600Y-50978598D01*
X177821853Y-51225160D01*
X177764001Y-51515999D01*
X177764001Y-58143197D01*
X176106454Y-59800744D01*
X176054691Y-59779250D01*
X175483813Y-59778752D01*
X174956200Y-59996757D01*
X174552176Y-60400077D01*
X174333250Y-60927309D01*
X174332752Y-61498187D01*
X142950000Y-61498187D01*
X142950000Y-58919745D01*
X168335861Y-58919745D01*
X168409995Y-59165864D01*
X168947223Y-59358965D01*
X169517454Y-59331778D01*
X169918005Y-59165864D01*
X169992139Y-58919745D01*
X169164000Y-58091605D01*
X168335861Y-58919745D01*
X142950000Y-58919745D01*
X142950000Y-55826910D01*
X144504695Y-55826910D01*
X144871640Y-56322343D01*
X146277171Y-56915736D01*
X147802793Y-56926087D01*
X149216246Y-56351819D01*
X149260360Y-56322343D01*
X149627305Y-55826910D01*
X147066000Y-53265605D01*
X144504695Y-55826910D01*
X142950000Y-55826910D01*
X142950000Y-53822793D01*
X143225913Y-53822793D01*
X143800181Y-55236246D01*
X143829657Y-55280360D01*
X144325090Y-55647305D01*
X146886395Y-53086000D01*
X147245605Y-53086000D01*
X149806910Y-55647305D01*
X150292027Y-55288000D01*
X150652560Y-55288000D01*
X150652560Y-57488000D01*
X150696838Y-57723317D01*
X150835910Y-57939441D01*
X151048110Y-58084431D01*
X151300000Y-58135440D01*
X153500000Y-58135440D01*
X153735317Y-58091162D01*
X153951441Y-57952090D01*
X154096431Y-57739890D01*
X154147440Y-57488000D01*
X154147440Y-56771207D01*
X155370665Y-56771207D01*
X155664630Y-57482658D01*
X156208479Y-58027457D01*
X156919416Y-58322663D01*
X157689207Y-58323335D01*
X158400658Y-58029370D01*
X158945457Y-57485521D01*
X159240663Y-56774584D01*
X159240665Y-56771207D01*
X160370665Y-56771207D01*
X160664630Y-57482658D01*
X161208479Y-58027457D01*
X161919416Y-58322663D01*
X162689207Y-58323335D01*
X163400658Y-58029370D01*
X163735388Y-57695223D01*
X167717035Y-57695223D01*
X167744222Y-58265454D01*
X167910136Y-58666005D01*
X168156255Y-58740139D01*
X168984395Y-57912000D01*
X169343605Y-57912000D01*
X170171745Y-58740139D01*
X170417864Y-58666005D01*
X170610965Y-58128777D01*
X170583778Y-57558546D01*
X170417864Y-57157995D01*
X170171745Y-57083861D01*
X169343605Y-57912000D01*
X168984395Y-57912000D01*
X168156255Y-57083861D01*
X167910136Y-57157995D01*
X167717035Y-57695223D01*
X163735388Y-57695223D01*
X163945457Y-57485521D01*
X164240663Y-56774584D01*
X164241335Y-56004793D01*
X163947370Y-55293342D01*
X163403521Y-54748543D01*
X163074689Y-54612000D01*
X167716560Y-54612000D01*
X167716560Y-56212000D01*
X167760838Y-56447317D01*
X167899910Y-56663441D01*
X168112110Y-56808431D01*
X168350201Y-56856646D01*
X168335861Y-56904255D01*
X169164000Y-57732395D01*
X169992139Y-56904255D01*
X169977855Y-56856833D01*
X170199317Y-56815162D01*
X170415441Y-56676090D01*
X170560431Y-56463890D01*
X170611440Y-56212000D01*
X170611440Y-54612000D01*
X170567162Y-54376683D01*
X170428090Y-54160559D01*
X170215890Y-54015569D01*
X169964000Y-53964560D01*
X168364000Y-53964560D01*
X168128683Y-54008838D01*
X167912559Y-54147910D01*
X167767569Y-54360110D01*
X167716560Y-54612000D01*
X163074689Y-54612000D01*
X162692584Y-54453337D01*
X161922793Y-54452665D01*
X161211342Y-54746630D01*
X160666543Y-55290479D01*
X160371337Y-56001416D01*
X160370665Y-56771207D01*
X159240665Y-56771207D01*
X159241335Y-56004793D01*
X158947370Y-55293342D01*
X158403521Y-54748543D01*
X157692584Y-54453337D01*
X156922793Y-54452665D01*
X156211342Y-54746630D01*
X155666543Y-55290479D01*
X155371337Y-56001416D01*
X155370665Y-56771207D01*
X154147440Y-56771207D01*
X154147440Y-55288000D01*
X154103162Y-55052683D01*
X153964090Y-54836559D01*
X153751890Y-54691569D01*
X153500000Y-54640560D01*
X151300000Y-54640560D01*
X151064683Y-54684838D01*
X150848559Y-54823910D01*
X150703569Y-55036110D01*
X150652560Y-55288000D01*
X150292027Y-55288000D01*
X150302343Y-55280360D01*
X150895736Y-53874829D01*
X150897832Y-53565887D01*
X174333000Y-53565887D01*
X174333000Y-53622113D01*
X174442233Y-54171264D01*
X174753302Y-54636811D01*
X175218849Y-54947880D01*
X175768000Y-55057113D01*
X176317151Y-54947880D01*
X176782698Y-54636811D01*
X177093767Y-54171264D01*
X177203000Y-53622113D01*
X177203000Y-53565887D01*
X177093767Y-53016736D01*
X176782698Y-52551189D01*
X176317151Y-52240120D01*
X175768000Y-52130887D01*
X175218849Y-52240120D01*
X174753302Y-52551189D01*
X174442233Y-53016736D01*
X174333000Y-53565887D01*
X150897832Y-53565887D01*
X150906087Y-52349207D01*
X150331819Y-50935754D01*
X150302343Y-50891640D01*
X149806910Y-50524695D01*
X147245605Y-53086000D01*
X146886395Y-53086000D01*
X144325090Y-50524695D01*
X143829657Y-50891640D01*
X143236264Y-52297171D01*
X143225913Y-53822793D01*
X142950000Y-53822793D01*
X142950000Y-50345090D01*
X144504695Y-50345090D01*
X147066000Y-52906395D01*
X149627305Y-50345090D01*
X149260360Y-49849657D01*
X147854829Y-49256264D01*
X146329207Y-49245913D01*
X144915754Y-49820181D01*
X144871640Y-49849657D01*
X144504695Y-50345090D01*
X142950000Y-50345090D01*
X142950000Y-48970000D01*
X183694000Y-48970000D01*
X183694000Y-124766000D01*
X183694000Y-124766000D01*
G37*
X183694000Y-124766000D02*
X142950000Y-124766000D01*
X142950000Y-119380000D01*
X145043907Y-119380000D01*
X145156946Y-119948285D01*
X145478853Y-120430054D01*
X145808026Y-120650000D01*
X145478853Y-120869946D01*
X145156946Y-121351715D01*
X145043907Y-121920000D01*
X145156946Y-122488285D01*
X145478853Y-122970054D01*
X145960622Y-123291961D01*
X146528907Y-123405000D01*
X146587093Y-123405000D01*
X147155378Y-123291961D01*
X147637147Y-122970054D01*
X147826345Y-122686899D01*
X147826355Y-122686924D01*
X148216642Y-123115183D01*
X148741108Y-123361486D01*
X148971000Y-123240819D01*
X148971000Y-122047000D01*
X149225000Y-122047000D01*
X149225000Y-123240819D01*
X149454892Y-123361486D01*
X149979358Y-123115183D01*
X150191036Y-122882910D01*
X160506695Y-122882910D01*
X160873640Y-123378343D01*
X162279171Y-123971736D01*
X163804793Y-123982087D01*
X165218246Y-123407819D01*
X165262360Y-123378343D01*
X165629305Y-122882910D01*
X163068000Y-120321605D01*
X160506695Y-122882910D01*
X150191036Y-122882910D01*
X150369645Y-122686924D01*
X150539476Y-122276890D01*
X150418155Y-122047000D01*
X149225000Y-122047000D01*
X148971000Y-122047000D01*
X148951000Y-122047000D01*
X148951000Y-121793000D01*
X148971000Y-121793000D01*
X148971000Y-119507000D01*
X149225000Y-119507000D01*
X149225000Y-121793000D01*
X150418155Y-121793000D01*
X150539476Y-121563110D01*
X150369645Y-121153076D01*
X150119682Y-120878793D01*
X159227913Y-120878793D01*
X159802181Y-122292246D01*
X159831657Y-122336360D01*
X160327090Y-122703305D01*
X162888395Y-120142000D01*
X163247605Y-120142000D01*
X165808910Y-122703305D01*
X166304343Y-122336360D01*
X166897736Y-120930829D01*
X166908087Y-119405207D01*
X166738582Y-118988000D01*
X172442560Y-118988000D01*
X172442560Y-120788000D01*
X172486838Y-121023317D01*
X172625910Y-121239441D01*
X172838110Y-121384431D01*
X173090000Y-121435440D01*
X174890000Y-121435440D01*
X175125317Y-121391162D01*
X175341441Y-121252090D01*
X175486431Y-121039890D01*
X175537440Y-120788000D01*
X175537440Y-118988000D01*
X175493162Y-118752683D01*
X175354090Y-118536559D01*
X175141890Y-118391569D01*
X175125656Y-118388281D01*
X175408155Y-117965491D01*
X175517057Y-117418000D01*
X179762560Y-117418000D01*
X179762560Y-119818000D01*
X179806838Y-120053317D01*
X179945910Y-120269441D01*
X180158110Y-120414431D01*
X180410000Y-120465440D01*
X182810000Y-120465440D01*
X183045317Y-120421162D01*
X183261441Y-120282090D01*
X183406431Y-120069890D01*
X183457440Y-119818000D01*
X183457440Y-117418000D01*
X183413162Y-117182683D01*
X183274090Y-116966559D01*
X183061890Y-116821569D01*
X182810000Y-116770560D01*
X182415712Y-116770560D01*
X182648086Y-116674545D01*
X183164730Y-116158801D01*
X183444681Y-115484605D01*
X183445318Y-114754597D01*
X183166545Y-114079914D01*
X182650801Y-113563270D01*
X181976605Y-113283319D01*
X181246597Y-113282682D01*
X180571914Y-113561455D01*
X180055270Y-114077199D01*
X179775319Y-114751395D01*
X179774682Y-115481403D01*
X180053455Y-116156086D01*
X180569199Y-116672730D01*
X180804799Y-116770560D01*
X180410000Y-116770560D01*
X180174683Y-116814838D01*
X179958559Y-116953910D01*
X179813569Y-117166110D01*
X179762560Y-117418000D01*
X175517057Y-117418000D01*
X175525000Y-117378072D01*
X175525000Y-117317928D01*
X175408155Y-116730509D01*
X175075409Y-116232519D01*
X174837418Y-116073499D01*
X175227966Y-115715576D01*
X175481046Y-115172742D01*
X175360997Y-114935000D01*
X174117000Y-114935000D01*
X174117000Y-114955000D01*
X173863000Y-114955000D01*
X173863000Y-114935000D01*
X172619003Y-114935000D01*
X172498954Y-115172742D01*
X172752034Y-115715576D01*
X173142582Y-116073499D01*
X172904591Y-116232519D01*
X172571845Y-116730509D01*
X172455000Y-117317928D01*
X172455000Y-117378072D01*
X172571845Y-117965491D01*
X172852837Y-118386026D01*
X172638559Y-118523910D01*
X172493569Y-118736110D01*
X172442560Y-118988000D01*
X166738582Y-118988000D01*
X166333819Y-117991754D01*
X166304343Y-117947640D01*
X165808910Y-117580695D01*
X163247605Y-120142000D01*
X162888395Y-120142000D01*
X160327090Y-117580695D01*
X159831657Y-117947640D01*
X159238264Y-119353171D01*
X159227913Y-120878793D01*
X150119682Y-120878793D01*
X149979358Y-120724817D01*
X149820046Y-120650000D01*
X149979358Y-120575183D01*
X150369645Y-120146924D01*
X150539476Y-119736890D01*
X150418155Y-119507000D01*
X149225000Y-119507000D01*
X148971000Y-119507000D01*
X148951000Y-119507000D01*
X148951000Y-119253000D01*
X148971000Y-119253000D01*
X148971000Y-116967000D01*
X149225000Y-116967000D01*
X149225000Y-119253000D01*
X150418155Y-119253000D01*
X150539476Y-119023110D01*
X150369645Y-118613076D01*
X149979358Y-118184817D01*
X149820046Y-118110000D01*
X149979358Y-118035183D01*
X150369645Y-117606924D01*
X150454898Y-117401090D01*
X160506695Y-117401090D01*
X163068000Y-119962395D01*
X165629305Y-117401090D01*
X165262360Y-116905657D01*
X163856829Y-116312264D01*
X162331207Y-116301913D01*
X160917754Y-116876181D01*
X160873640Y-116905657D01*
X160506695Y-117401090D01*
X150454898Y-117401090D01*
X150539476Y-117196890D01*
X150418155Y-116967000D01*
X149225000Y-116967000D01*
X148971000Y-116967000D01*
X148951000Y-116967000D01*
X148951000Y-116713000D01*
X148971000Y-116713000D01*
X148971000Y-115519181D01*
X149225000Y-115519181D01*
X149225000Y-116713000D01*
X150418155Y-116713000D01*
X150539476Y-116483110D01*
X150369645Y-116073076D01*
X149979358Y-115644817D01*
X149454892Y-115398514D01*
X149225000Y-115519181D01*
X148971000Y-115519181D01*
X148741108Y-115398514D01*
X148216642Y-115644817D01*
X148029192Y-115850504D01*
X148011162Y-115754683D01*
X147872090Y-115538559D01*
X147659890Y-115393569D01*
X147408000Y-115342560D01*
X145708000Y-115342560D01*
X145472683Y-115386838D01*
X145256559Y-115525910D01*
X145111569Y-115738110D01*
X145060560Y-115990000D01*
X145060560Y-117690000D01*
X145104838Y-117925317D01*
X145243910Y-118141441D01*
X145456110Y-118286431D01*
X145523541Y-118300086D01*
X145478853Y-118329946D01*
X145156946Y-118811715D01*
X145043907Y-119380000D01*
X142950000Y-119380000D01*
X142950000Y-114443258D01*
X172498954Y-114443258D01*
X172619003Y-114681000D01*
X173863000Y-114681000D01*
X173863000Y-113437622D01*
X174117000Y-113437622D01*
X174117000Y-114681000D01*
X175360997Y-114681000D01*
X175481046Y-114443258D01*
X175227966Y-113900424D01*
X174786417Y-113495760D01*
X174354740Y-113316964D01*
X174117000Y-113437622D01*
X173863000Y-113437622D01*
X173625260Y-113316964D01*
X173193583Y-113495760D01*
X172752034Y-113900424D01*
X172498954Y-114443258D01*
X142950000Y-114443258D01*
X142950000Y-102607745D01*
X149579861Y-102607745D01*
X149653995Y-102853864D01*
X150191223Y-103046965D01*
X150761454Y-103019778D01*
X151162005Y-102853864D01*
X151236139Y-102607745D01*
X150408000Y-101779605D01*
X149579861Y-102607745D01*
X142950000Y-102607745D01*
X142950000Y-101383223D01*
X148961035Y-101383223D01*
X148988222Y-101953454D01*
X149154136Y-102354005D01*
X149400255Y-102428139D01*
X150228395Y-101600000D01*
X150587605Y-101600000D01*
X151415745Y-102428139D01*
X151463167Y-102413855D01*
X151504838Y-102635317D01*
X151643910Y-102851441D01*
X151856110Y-102996431D01*
X152108000Y-103047440D01*
X153708000Y-103047440D01*
X153943317Y-103003162D01*
X154159441Y-102864090D01*
X154304431Y-102651890D01*
X154355440Y-102400000D01*
X154355440Y-100800000D01*
X154311162Y-100564683D01*
X154172090Y-100348559D01*
X153959890Y-100203569D01*
X153708000Y-100152560D01*
X152108000Y-100152560D01*
X151872683Y-100196838D01*
X151656559Y-100335910D01*
X151511569Y-100548110D01*
X151463354Y-100786201D01*
X151415745Y-100771861D01*
X150587605Y-101600000D01*
X150228395Y-101600000D01*
X149400255Y-100771861D01*
X149154136Y-100845995D01*
X148961035Y-101383223D01*
X142950000Y-101383223D01*
X142950000Y-100592255D01*
X149579861Y-100592255D01*
X150408000Y-101420395D01*
X151236139Y-100592255D01*
X151162005Y-100346136D01*
X150624777Y-100153035D01*
X150054546Y-100180222D01*
X149653995Y-100346136D01*
X149579861Y-100592255D01*
X142950000Y-100592255D01*
X142950000Y-88138000D01*
X145856887Y-88138000D01*
X145966120Y-88687151D01*
X146277189Y-89152698D01*
X146659275Y-89408000D01*
X146277189Y-89663302D01*
X145966120Y-90128849D01*
X145856887Y-90678000D01*
X145966120Y-91227151D01*
X146277189Y-91692698D01*
X146659275Y-91948000D01*
X146277189Y-92203302D01*
X145966120Y-92668849D01*
X145856887Y-93218000D01*
X145966120Y-93767151D01*
X146277189Y-94232698D01*
X146742736Y-94543767D01*
X147291887Y-94653000D01*
X147348113Y-94653000D01*
X147897264Y-94543767D01*
X148362811Y-94232698D01*
X148673880Y-93767151D01*
X148783113Y-93218000D01*
X148673880Y-92668849D01*
X148362811Y-92203302D01*
X147980725Y-91948000D01*
X148362811Y-91692698D01*
X148673880Y-91227151D01*
X148783113Y-90678000D01*
X148673880Y-90128849D01*
X148362811Y-89663302D01*
X147980725Y-89408000D01*
X148362811Y-89152698D01*
X148673880Y-88687151D01*
X148783113Y-88138000D01*
X148673880Y-87588849D01*
X148362811Y-87123302D01*
X147958297Y-86853014D01*
X148175134Y-86750389D01*
X148551041Y-86335423D01*
X148711904Y-85947039D01*
X148589915Y-85725000D01*
X147447000Y-85725000D01*
X147447000Y-85745000D01*
X147193000Y-85745000D01*
X147193000Y-85725000D01*
X146050085Y-85725000D01*
X145928096Y-85947039D01*
X146088959Y-86335423D01*
X146464866Y-86750389D01*
X146681703Y-86853014D01*
X146277189Y-87123302D01*
X145966120Y-87588849D01*
X145856887Y-88138000D01*
X142950000Y-88138000D01*
X142950000Y-85598000D01*
X153476887Y-85598000D01*
X153586120Y-86147151D01*
X153897189Y-86612698D01*
X154279275Y-86868000D01*
X153897189Y-87123302D01*
X153586120Y-87588849D01*
X153476887Y-88138000D01*
X153586120Y-88687151D01*
X153897189Y-89152698D01*
X154279275Y-89408000D01*
X153897189Y-89663302D01*
X153586120Y-90128849D01*
X153476887Y-90678000D01*
X153586120Y-91227151D01*
X153897189Y-91692698D01*
X154041465Y-91789101D01*
X153904683Y-91814838D01*
X153688559Y-91953910D01*
X153543569Y-92166110D01*
X153492560Y-92418000D01*
X153492560Y-94018000D01*
X153536838Y-94253317D01*
X153675910Y-94469441D01*
X153888110Y-94614431D01*
X154140000Y-94665440D01*
X155740000Y-94665440D01*
X155975317Y-94621162D01*
X156191441Y-94482090D01*
X156336431Y-94269890D01*
X156387440Y-94018000D01*
X156387440Y-92418000D01*
X156343162Y-92182683D01*
X156204090Y-91966559D01*
X155991890Y-91821569D01*
X155836911Y-91790185D01*
X155982811Y-91692698D01*
X156293880Y-91227151D01*
X156403113Y-90678000D01*
X156293880Y-90128849D01*
X155982811Y-89663302D01*
X155600725Y-89408000D01*
X155982811Y-89152698D01*
X156293880Y-88687151D01*
X156403113Y-88138000D01*
X156293880Y-87588849D01*
X155982811Y-87123302D01*
X155600725Y-86868000D01*
X155982811Y-86612698D01*
X156293880Y-86147151D01*
X156403113Y-85598000D01*
X156293880Y-85048849D01*
X155982811Y-84583302D01*
X155578297Y-84313014D01*
X155795134Y-84210389D01*
X156171041Y-83795423D01*
X156331904Y-83407039D01*
X156209915Y-83185000D01*
X155067000Y-83185000D01*
X155067000Y-83205000D01*
X154813000Y-83205000D01*
X154813000Y-83185000D01*
X153670085Y-83185000D01*
X153548096Y-83407039D01*
X153708959Y-83795423D01*
X154084866Y-84210389D01*
X154301703Y-84313014D01*
X153897189Y-84583302D01*
X153586120Y-85048849D01*
X153476887Y-85598000D01*
X142950000Y-85598000D01*
X142950000Y-83407039D01*
X145928096Y-83407039D01*
X146088959Y-83795423D01*
X146464866Y-84210389D01*
X146713367Y-84328000D01*
X146464866Y-84445611D01*
X146088959Y-84860577D01*
X145928096Y-85248961D01*
X146050085Y-85471000D01*
X147193000Y-85471000D01*
X147193000Y-83185000D01*
X147447000Y-83185000D01*
X147447000Y-85471000D01*
X148589915Y-85471000D01*
X148711904Y-85248961D01*
X148551041Y-84860577D01*
X148175134Y-84445611D01*
X147926633Y-84328000D01*
X148175134Y-84210389D01*
X148551041Y-83795423D01*
X148711904Y-83407039D01*
X148589915Y-83185000D01*
X147447000Y-83185000D01*
X147193000Y-83185000D01*
X146050085Y-83185000D01*
X145928096Y-83407039D01*
X142950000Y-83407039D01*
X142950000Y-77978000D01*
X145856887Y-77978000D01*
X145966120Y-78527151D01*
X146277189Y-78992698D01*
X146659275Y-79248000D01*
X146277189Y-79503302D01*
X145966120Y-79968849D01*
X145856887Y-80518000D01*
X145966120Y-81067151D01*
X146277189Y-81532698D01*
X146681703Y-81802986D01*
X146464866Y-81905611D01*
X146088959Y-82320577D01*
X145928096Y-82708961D01*
X146050085Y-82931000D01*
X147193000Y-82931000D01*
X147193000Y-82911000D01*
X147447000Y-82911000D01*
X147447000Y-82931000D01*
X148589915Y-82931000D01*
X148711904Y-82708961D01*
X148551041Y-82320577D01*
X148175134Y-81905611D01*
X147958297Y-81802986D01*
X148362811Y-81532698D01*
X148673880Y-81067151D01*
X148783113Y-80518000D01*
X148673880Y-79968849D01*
X148362811Y-79503302D01*
X147980725Y-79248000D01*
X148362811Y-78992698D01*
X148673880Y-78527151D01*
X148783113Y-77978000D01*
X148673880Y-77428849D01*
X148362811Y-76963302D01*
X147958297Y-76693014D01*
X148175134Y-76590389D01*
X148551041Y-76175423D01*
X148711904Y-75787039D01*
X148589915Y-75565000D01*
X147447000Y-75565000D01*
X147447000Y-75585000D01*
X147193000Y-75585000D01*
X147193000Y-75565000D01*
X146050085Y-75565000D01*
X145928096Y-75787039D01*
X146088959Y-76175423D01*
X146464866Y-76590389D01*
X146681703Y-76693014D01*
X146277189Y-76963302D01*
X145966120Y-77428849D01*
X145856887Y-77978000D01*
X142950000Y-77978000D01*
X142950000Y-75438000D01*
X153476887Y-75438000D01*
X153586120Y-75987151D01*
X153897189Y-76452698D01*
X154279275Y-76708000D01*
X153897189Y-76963302D01*
X153586120Y-77428849D01*
X153476887Y-77978000D01*
X153586120Y-78527151D01*
X153897189Y-78992698D01*
X154279275Y-79248000D01*
X153897189Y-79503302D01*
X153586120Y-79968849D01*
X153476887Y-80518000D01*
X153586120Y-81067151D01*
X153897189Y-81532698D01*
X154301703Y-81802986D01*
X154084866Y-81905611D01*
X153708959Y-82320577D01*
X153548096Y-82708961D01*
X153670085Y-82931000D01*
X154813000Y-82931000D01*
X154813000Y-82911000D01*
X155067000Y-82911000D01*
X155067000Y-82931000D01*
X156209915Y-82931000D01*
X156331904Y-82708961D01*
X156171041Y-82320577D01*
X155795134Y-81905611D01*
X155578297Y-81802986D01*
X155982811Y-81532698D01*
X156293880Y-81067151D01*
X156403113Y-80518000D01*
X156293880Y-79968849D01*
X155982811Y-79503302D01*
X155600725Y-79248000D01*
X155982811Y-78992698D01*
X156293880Y-78527151D01*
X156403113Y-77978000D01*
X156368017Y-77801562D01*
X156815788Y-77353791D01*
X156815791Y-77353789D01*
X157007634Y-77066674D01*
X157075001Y-76727999D01*
X157075001Y-75255613D01*
X160723265Y-75255613D01*
X160964059Y-75838377D01*
X161337011Y-76211981D01*
X160965626Y-76582717D01*
X160723816Y-77165061D01*
X160723265Y-77795613D01*
X160964059Y-78378377D01*
X161337011Y-78751981D01*
X160965626Y-79122717D01*
X160723816Y-79705061D01*
X160723265Y-80335613D01*
X160964059Y-80918377D01*
X161337011Y-81291981D01*
X160965626Y-81662717D01*
X160723816Y-82245061D01*
X160723265Y-82875613D01*
X160964059Y-83458377D01*
X161337011Y-83831981D01*
X160965626Y-84202717D01*
X160723816Y-84785061D01*
X160723265Y-85415613D01*
X160964059Y-85998377D01*
X161337011Y-86371981D01*
X160965626Y-86742717D01*
X160723816Y-87325061D01*
X160723265Y-87955613D01*
X160964059Y-88538377D01*
X161337011Y-88911981D01*
X160965626Y-89282717D01*
X160723816Y-89865061D01*
X160723265Y-90495613D01*
X160964059Y-91078377D01*
X161337011Y-91451981D01*
X160965626Y-91822717D01*
X160723816Y-92405061D01*
X160723265Y-93035613D01*
X160964059Y-93618377D01*
X161337011Y-93991981D01*
X160965626Y-94362717D01*
X160723816Y-94945061D01*
X160723265Y-95575613D01*
X160964059Y-96158377D01*
X161337011Y-96531981D01*
X160965626Y-96902717D01*
X160723816Y-97485061D01*
X160723265Y-98115613D01*
X160964059Y-98698377D01*
X161409537Y-99144634D01*
X161991881Y-99386444D01*
X162622433Y-99386995D01*
X163195000Y-99150414D01*
X163195000Y-106680000D01*
X163203685Y-106726159D01*
X163230965Y-106768553D01*
X163272590Y-106796994D01*
X163322000Y-106807000D01*
X179070000Y-106807000D01*
X179116159Y-106798315D01*
X179158553Y-106771035D01*
X179186994Y-106729410D01*
X179197000Y-106680000D01*
X179197000Y-99147733D01*
X179771881Y-99386444D01*
X180402433Y-99386995D01*
X180985197Y-99146201D01*
X181431454Y-98700723D01*
X181673264Y-98118379D01*
X181673815Y-97487827D01*
X181433021Y-96905063D01*
X181060069Y-96531459D01*
X181431454Y-96160723D01*
X181673264Y-95578379D01*
X181673815Y-94947827D01*
X181433021Y-94365063D01*
X181060069Y-93991459D01*
X181431454Y-93620723D01*
X181673264Y-93038379D01*
X181673815Y-92407827D01*
X181433021Y-91825063D01*
X181060069Y-91451459D01*
X181431454Y-91080723D01*
X181673264Y-90498379D01*
X181673815Y-89867827D01*
X181433021Y-89285063D01*
X181060069Y-88911459D01*
X181431454Y-88540723D01*
X181673264Y-87958379D01*
X181673815Y-87327827D01*
X181433021Y-86745063D01*
X181060069Y-86371459D01*
X181431454Y-86000723D01*
X181673264Y-85418379D01*
X181673815Y-84787827D01*
X181433021Y-84205063D01*
X181060069Y-83831459D01*
X181431454Y-83460723D01*
X181673264Y-82878379D01*
X181673815Y-82247827D01*
X181433021Y-81665063D01*
X181060069Y-81291459D01*
X181431454Y-80920723D01*
X181673264Y-80338379D01*
X181673815Y-79707827D01*
X181433021Y-79125063D01*
X180994329Y-78685604D01*
X181025285Y-78598070D01*
X180088540Y-77661325D01*
X179151795Y-78598070D01*
X179182947Y-78686159D01*
X178745626Y-79122717D01*
X178503816Y-79705061D01*
X178503265Y-80335613D01*
X178744059Y-80918377D01*
X179117011Y-81291981D01*
X178745626Y-81662717D01*
X178503816Y-82245061D01*
X178503265Y-82875613D01*
X178744059Y-83458377D01*
X179117011Y-83831981D01*
X178745626Y-84202717D01*
X178503816Y-84785061D01*
X178503265Y-85415613D01*
X178744059Y-85998377D01*
X179117011Y-86371981D01*
X178745626Y-86742717D01*
X178503816Y-87325061D01*
X178503265Y-87955613D01*
X178744059Y-88538377D01*
X179117011Y-88911981D01*
X178745626Y-89282717D01*
X178503816Y-89865061D01*
X178503265Y-90495613D01*
X178744059Y-91078377D01*
X179117011Y-91451981D01*
X178745626Y-91822717D01*
X178503816Y-92405061D01*
X178503265Y-93035613D01*
X178744059Y-93618377D01*
X178978272Y-93853000D01*
X163418771Y-93853000D01*
X163651454Y-93620723D01*
X163893264Y-93038379D01*
X163893815Y-92407827D01*
X163653021Y-91825063D01*
X163280069Y-91451459D01*
X163651454Y-91080723D01*
X163893264Y-90498379D01*
X163893815Y-89867827D01*
X163653021Y-89285063D01*
X163280069Y-88911459D01*
X163651454Y-88540723D01*
X163893264Y-87958379D01*
X163893815Y-87327827D01*
X163653021Y-86745063D01*
X163280069Y-86371459D01*
X163651454Y-86000723D01*
X163893264Y-85418379D01*
X163893815Y-84787827D01*
X163653021Y-84205063D01*
X163280069Y-83831459D01*
X163651454Y-83460723D01*
X163893264Y-82878379D01*
X163893815Y-82247827D01*
X163653021Y-81665063D01*
X163280069Y-81291459D01*
X163651454Y-80920723D01*
X163893264Y-80338379D01*
X163893815Y-79707827D01*
X163653021Y-79125063D01*
X163280069Y-78751459D01*
X163651454Y-78380723D01*
X163893264Y-77798379D01*
X163893761Y-77229118D01*
X178492352Y-77229118D01*
X178517188Y-77859181D01*
X178710521Y-78325928D01*
X178972190Y-78418465D01*
X179908935Y-77481720D01*
X180268145Y-77481720D01*
X181204890Y-78418465D01*
X181466559Y-78325928D01*
X181684728Y-77734322D01*
X181659892Y-77104259D01*
X181466559Y-76637512D01*
X181204890Y-76544975D01*
X180268145Y-77481720D01*
X179908935Y-77481720D01*
X178972190Y-76544975D01*
X178710521Y-76637512D01*
X178492352Y-77229118D01*
X163893761Y-77229118D01*
X163893815Y-77167827D01*
X163653021Y-76585063D01*
X163280069Y-76211459D01*
X163651454Y-75840723D01*
X163893264Y-75258379D01*
X163893815Y-74627827D01*
X163653021Y-74045063D01*
X163214329Y-73605604D01*
X163245285Y-73518070D01*
X162308540Y-72581325D01*
X161371795Y-73518070D01*
X161402947Y-73606159D01*
X160965626Y-74042717D01*
X160723816Y-74625061D01*
X160723265Y-75255613D01*
X157075001Y-75255613D01*
X157075001Y-74896839D01*
X160821714Y-71150126D01*
X160894450Y-71263161D01*
X161106650Y-71408151D01*
X161142654Y-71415442D01*
X161192188Y-71464976D01*
X160930521Y-71557512D01*
X160712352Y-72149118D01*
X160737188Y-72779181D01*
X160930521Y-73245928D01*
X161192190Y-73338465D01*
X162128935Y-72401720D01*
X162114793Y-72387578D01*
X162294398Y-72207973D01*
X162308540Y-72222115D01*
X162322683Y-72207973D01*
X162502288Y-72387578D01*
X162488145Y-72401720D01*
X163424890Y-73338465D01*
X163686559Y-73245928D01*
X163904728Y-72654322D01*
X163879892Y-72024259D01*
X163686559Y-71557512D01*
X163424892Y-71464976D01*
X163470612Y-71419256D01*
X163493857Y-71414882D01*
X163709981Y-71275810D01*
X163854971Y-71063610D01*
X163905980Y-70811720D01*
X163905980Y-70175613D01*
X178503265Y-70175613D01*
X178744059Y-70758377D01*
X179117011Y-71131981D01*
X178745626Y-71502717D01*
X178503816Y-72085061D01*
X178503265Y-72715613D01*
X178744059Y-73298377D01*
X179117011Y-73671981D01*
X178745626Y-74042717D01*
X178503816Y-74625061D01*
X178503265Y-75255613D01*
X178744059Y-75838377D01*
X179182751Y-76277836D01*
X179151795Y-76365370D01*
X180088540Y-77302115D01*
X181025285Y-76365370D01*
X180994133Y-76277281D01*
X181431454Y-75840723D01*
X181673264Y-75258379D01*
X181673815Y-74627827D01*
X181433021Y-74045063D01*
X181060069Y-73671459D01*
X181431454Y-73300723D01*
X181673264Y-72718379D01*
X181673815Y-72087827D01*
X181433021Y-71505063D01*
X181060069Y-71131459D01*
X181431454Y-70760723D01*
X181673264Y-70178379D01*
X181673815Y-69547827D01*
X181433021Y-68965063D01*
X180987543Y-68518806D01*
X180405199Y-68276996D01*
X179774647Y-68276445D01*
X179528979Y-68377953D01*
X179324000Y-68337180D01*
X179033161Y-68395032D01*
X178786599Y-68559779D01*
X178621852Y-68806341D01*
X178564000Y-69097180D01*
X178604742Y-69302003D01*
X178503816Y-69545061D01*
X178503265Y-70175613D01*
X163905980Y-70175613D01*
X163905980Y-68911720D01*
X163861702Y-68676403D01*
X163722630Y-68460279D01*
X163510430Y-68315289D01*
X163258540Y-68264280D01*
X161358540Y-68264280D01*
X161123223Y-68308558D01*
X160907099Y-68447630D01*
X160762109Y-68659830D01*
X160711100Y-68911720D01*
X160711100Y-69006047D01*
X160519865Y-69044087D01*
X160232750Y-69235930D01*
X160232748Y-69235933D01*
X155564211Y-73904469D01*
X155436167Y-74096102D01*
X154968113Y-74003000D01*
X154911887Y-74003000D01*
X154362736Y-74112233D01*
X153897189Y-74423302D01*
X153586120Y-74888849D01*
X153476887Y-75438000D01*
X142950000Y-75438000D01*
X142950000Y-75088961D01*
X145928096Y-75088961D01*
X146050085Y-75311000D01*
X147193000Y-75311000D01*
X147193000Y-74167371D01*
X147447000Y-74167371D01*
X147447000Y-75311000D01*
X148589915Y-75311000D01*
X148711904Y-75088961D01*
X148551041Y-74700577D01*
X148175134Y-74285611D01*
X147669041Y-74046086D01*
X147447000Y-74167371D01*
X147193000Y-74167371D01*
X146970959Y-74046086D01*
X146464866Y-74285611D01*
X146088959Y-74700577D01*
X145928096Y-75088961D01*
X142950000Y-75088961D01*
X142950000Y-66944123D01*
X150710817Y-66944123D01*
X150990988Y-67560392D01*
X151485668Y-68022534D01*
X152003878Y-68237175D01*
X152273000Y-68119125D01*
X152273000Y-66675000D01*
X152527000Y-66675000D01*
X152527000Y-68119125D01*
X152796122Y-68237175D01*
X153314332Y-68022534D01*
X153809012Y-67560392D01*
X154089183Y-66944123D01*
X153971604Y-66675000D01*
X152527000Y-66675000D01*
X152273000Y-66675000D01*
X150828396Y-66675000D01*
X150710817Y-66944123D01*
X142950000Y-66944123D01*
X142950000Y-66151877D01*
X150710817Y-66151877D01*
X150828396Y-66421000D01*
X152273000Y-66421000D01*
X152273000Y-64976875D01*
X152527000Y-64976875D01*
X152527000Y-66421000D01*
X153971604Y-66421000D01*
X154089183Y-66151877D01*
X153809012Y-65535608D01*
X153314332Y-65073466D01*
X152796122Y-64858825D01*
X152527000Y-64976875D01*
X152273000Y-64976875D01*
X152003878Y-64858825D01*
X151485668Y-65073466D01*
X150990988Y-65535608D01*
X150710817Y-66151877D01*
X142950000Y-66151877D01*
X142950000Y-61498187D01*
X174332752Y-61498187D01*
X174550757Y-62025800D01*
X174954077Y-62429824D01*
X175481309Y-62648750D01*
X176052187Y-62649248D01*
X176579800Y-62431243D01*
X176983824Y-62027923D01*
X177202750Y-61500691D01*
X177203248Y-60929813D01*
X177180951Y-60875851D01*
X179061402Y-58995400D01*
X179226149Y-58748838D01*
X179284001Y-58457999D01*
X179284001Y-57366452D01*
X179729108Y-57575486D01*
X179959000Y-57454819D01*
X179959000Y-56261000D01*
X180213000Y-56261000D01*
X180213000Y-57454819D01*
X180442892Y-57575486D01*
X180967358Y-57329183D01*
X181357645Y-56900924D01*
X181527476Y-56490890D01*
X181406155Y-56261000D01*
X180213000Y-56261000D01*
X179959000Y-56261000D01*
X179939000Y-56261000D01*
X179939000Y-56007000D01*
X179959000Y-56007000D01*
X179959000Y-55987000D01*
X180213000Y-55987000D01*
X180213000Y-56007000D01*
X181406155Y-56007000D01*
X181527476Y-55777110D01*
X181357645Y-55367076D01*
X180967358Y-54938817D01*
X180824447Y-54871702D01*
X181165147Y-54644054D01*
X181487054Y-54162285D01*
X181600093Y-53594000D01*
X181487054Y-53025715D01*
X181165147Y-52543946D01*
X181123548Y-52516150D01*
X181171317Y-52507162D01*
X181387441Y-52368090D01*
X181532431Y-52155890D01*
X181583440Y-51904000D01*
X181583440Y-50204000D01*
X181539162Y-49968683D01*
X181400090Y-49752559D01*
X181187890Y-49607569D01*
X180936000Y-49556560D01*
X179236000Y-49556560D01*
X179000683Y-49600838D01*
X178784559Y-49739910D01*
X178639569Y-49952110D01*
X178588560Y-50204000D01*
X178588560Y-50423080D01*
X178448599Y-50516599D01*
X177986600Y-50978598D01*
X177821853Y-51225160D01*
X177764001Y-51515999D01*
X177764001Y-58143197D01*
X176106454Y-59800744D01*
X176054691Y-59779250D01*
X175483813Y-59778752D01*
X174956200Y-59996757D01*
X174552176Y-60400077D01*
X174333250Y-60927309D01*
X174332752Y-61498187D01*
X142950000Y-61498187D01*
X142950000Y-58919745D01*
X168335861Y-58919745D01*
X168409995Y-59165864D01*
X168947223Y-59358965D01*
X169517454Y-59331778D01*
X169918005Y-59165864D01*
X169992139Y-58919745D01*
X169164000Y-58091605D01*
X168335861Y-58919745D01*
X142950000Y-58919745D01*
X142950000Y-55826910D01*
X144504695Y-55826910D01*
X144871640Y-56322343D01*
X146277171Y-56915736D01*
X147802793Y-56926087D01*
X149216246Y-56351819D01*
X149260360Y-56322343D01*
X149627305Y-55826910D01*
X147066000Y-53265605D01*
X144504695Y-55826910D01*
X142950000Y-55826910D01*
X142950000Y-53822793D01*
X143225913Y-53822793D01*
X143800181Y-55236246D01*
X143829657Y-55280360D01*
X144325090Y-55647305D01*
X146886395Y-53086000D01*
X147245605Y-53086000D01*
X149806910Y-55647305D01*
X150292027Y-55288000D01*
X150652560Y-55288000D01*
X150652560Y-57488000D01*
X150696838Y-57723317D01*
X150835910Y-57939441D01*
X151048110Y-58084431D01*
X151300000Y-58135440D01*
X153500000Y-58135440D01*
X153735317Y-58091162D01*
X153951441Y-57952090D01*
X154096431Y-57739890D01*
X154147440Y-57488000D01*
X154147440Y-56771207D01*
X155370665Y-56771207D01*
X155664630Y-57482658D01*
X156208479Y-58027457D01*
X156919416Y-58322663D01*
X157689207Y-58323335D01*
X158400658Y-58029370D01*
X158945457Y-57485521D01*
X159240663Y-56774584D01*
X159240665Y-56771207D01*
X160370665Y-56771207D01*
X160664630Y-57482658D01*
X161208479Y-58027457D01*
X161919416Y-58322663D01*
X162689207Y-58323335D01*
X163400658Y-58029370D01*
X163735388Y-57695223D01*
X167717035Y-57695223D01*
X167744222Y-58265454D01*
X167910136Y-58666005D01*
X168156255Y-58740139D01*
X168984395Y-57912000D01*
X169343605Y-57912000D01*
X170171745Y-58740139D01*
X170417864Y-58666005D01*
X170610965Y-58128777D01*
X170583778Y-57558546D01*
X170417864Y-57157995D01*
X170171745Y-57083861D01*
X169343605Y-57912000D01*
X168984395Y-57912000D01*
X168156255Y-57083861D01*
X167910136Y-57157995D01*
X167717035Y-57695223D01*
X163735388Y-57695223D01*
X163945457Y-57485521D01*
X164240663Y-56774584D01*
X164241335Y-56004793D01*
X163947370Y-55293342D01*
X163403521Y-54748543D01*
X163074689Y-54612000D01*
X167716560Y-54612000D01*
X167716560Y-56212000D01*
X167760838Y-56447317D01*
X167899910Y-56663441D01*
X168112110Y-56808431D01*
X168350201Y-56856646D01*
X168335861Y-56904255D01*
X169164000Y-57732395D01*
X169992139Y-56904255D01*
X169977855Y-56856833D01*
X170199317Y-56815162D01*
X170415441Y-56676090D01*
X170560431Y-56463890D01*
X170611440Y-56212000D01*
X170611440Y-54612000D01*
X170567162Y-54376683D01*
X170428090Y-54160559D01*
X170215890Y-54015569D01*
X169964000Y-53964560D01*
X168364000Y-53964560D01*
X168128683Y-54008838D01*
X167912559Y-54147910D01*
X167767569Y-54360110D01*
X167716560Y-54612000D01*
X163074689Y-54612000D01*
X162692584Y-54453337D01*
X161922793Y-54452665D01*
X161211342Y-54746630D01*
X160666543Y-55290479D01*
X160371337Y-56001416D01*
X160370665Y-56771207D01*
X159240665Y-56771207D01*
X159241335Y-56004793D01*
X158947370Y-55293342D01*
X158403521Y-54748543D01*
X157692584Y-54453337D01*
X156922793Y-54452665D01*
X156211342Y-54746630D01*
X155666543Y-55290479D01*
X155371337Y-56001416D01*
X155370665Y-56771207D01*
X154147440Y-56771207D01*
X154147440Y-55288000D01*
X154103162Y-55052683D01*
X153964090Y-54836559D01*
X153751890Y-54691569D01*
X153500000Y-54640560D01*
X151300000Y-54640560D01*
X151064683Y-54684838D01*
X150848559Y-54823910D01*
X150703569Y-55036110D01*
X150652560Y-55288000D01*
X150292027Y-55288000D01*
X150302343Y-55280360D01*
X150895736Y-53874829D01*
X150897832Y-53565887D01*
X174333000Y-53565887D01*
X174333000Y-53622113D01*
X174442233Y-54171264D01*
X174753302Y-54636811D01*
X175218849Y-54947880D01*
X175768000Y-55057113D01*
X176317151Y-54947880D01*
X176782698Y-54636811D01*
X177093767Y-54171264D01*
X177203000Y-53622113D01*
X177203000Y-53565887D01*
X177093767Y-53016736D01*
X176782698Y-52551189D01*
X176317151Y-52240120D01*
X175768000Y-52130887D01*
X175218849Y-52240120D01*
X174753302Y-52551189D01*
X174442233Y-53016736D01*
X174333000Y-53565887D01*
X150897832Y-53565887D01*
X150906087Y-52349207D01*
X150331819Y-50935754D01*
X150302343Y-50891640D01*
X149806910Y-50524695D01*
X147245605Y-53086000D01*
X146886395Y-53086000D01*
X144325090Y-50524695D01*
X143829657Y-50891640D01*
X143236264Y-52297171D01*
X143225913Y-53822793D01*
X142950000Y-53822793D01*
X142950000Y-50345090D01*
X144504695Y-50345090D01*
X147066000Y-52906395D01*
X149627305Y-50345090D01*
X149260360Y-49849657D01*
X147854829Y-49256264D01*
X146329207Y-49245913D01*
X144915754Y-49820181D01*
X144871640Y-49849657D01*
X144504695Y-50345090D01*
X142950000Y-50345090D01*
X142950000Y-48970000D01*
X183694000Y-48970000D01*
X183694000Y-124766000D01*
M02*
