G04 #@! TF.FileFunction,Copper,L1,Top,Signal*
%FSLAX46Y46*%
G04 Gerber Fmt 4.6, Leading zero omitted, Abs format (unit mm)*
G04 Created by KiCad (PCBNEW 4.0.7) date 11/12/17 23:12:21*
%MOMM*%
%LPD*%
G01*
G04 APERTURE LIST*
%ADD10C,0.100000*%
%ADD11R,1.900000X1.900000*%
%ADD12C,1.900000*%
%ADD13R,1.600000X1.600000*%
%ADD14C,1.600000*%
%ADD15R,2.200000X2.200000*%
%ADD16O,2.200000X2.200000*%
%ADD17R,1.700000X1.700000*%
%ADD18O,1.700000X1.700000*%
%ADD19C,2.400000*%
%ADD20R,2.400000X2.400000*%
%ADD21C,2.600000*%
%ADD22O,1.600000X1.600000*%
%ADD23C,6.400000*%
%ADD24R,1.800000X1.800000*%
%ADD25O,1.800000X1.800000*%
%ADD26C,0.500000*%
%ADD27C,0.250000*%
%ADD28C,1.000000*%
G04 APERTURE END LIST*
D10*
D11*
X162308540Y-69861720D03*
D12*
X162308540Y-72401720D03*
X162308540Y-74941720D03*
X162308540Y-77481720D03*
X162308540Y-80021720D03*
X162308540Y-82561720D03*
X162308540Y-85101720D03*
X162308540Y-87641720D03*
X162308540Y-90181720D03*
X162308540Y-92721720D03*
X162308540Y-95261720D03*
X162308540Y-97801720D03*
X180088540Y-69861720D03*
X180088540Y-72401720D03*
X180088540Y-74941720D03*
X180088540Y-77481720D03*
X180088540Y-80021720D03*
X180088540Y-82561720D03*
X180088540Y-85101720D03*
X180088540Y-87641720D03*
X180088540Y-90181720D03*
X180088540Y-92721720D03*
X180088540Y-95261720D03*
X180088540Y-97801720D03*
D13*
X169164000Y-55412000D03*
D14*
X169164000Y-57912000D03*
D13*
X152908000Y-101600000D03*
D14*
X150408000Y-101600000D03*
D15*
X152400000Y-56388000D03*
D16*
X152400000Y-66548000D03*
D17*
X180086000Y-51054000D03*
D18*
X180086000Y-53594000D03*
X180086000Y-56134000D03*
D17*
X146558000Y-116840000D03*
D18*
X149098000Y-116840000D03*
X146558000Y-119380000D03*
X149098000Y-119380000D03*
X146558000Y-121920000D03*
X149098000Y-121920000D03*
D19*
X181610000Y-115118000D03*
D20*
X181610000Y-118618000D03*
D21*
X162306000Y-56388000D03*
X157306000Y-56388000D03*
D14*
X175768000Y-61214000D03*
D22*
X175768000Y-53594000D03*
D13*
X154940000Y-93218000D03*
D22*
X147320000Y-75438000D03*
X154940000Y-90678000D03*
X147320000Y-77978000D03*
X154940000Y-88138000D03*
X147320000Y-80518000D03*
X154940000Y-85598000D03*
X147320000Y-83058000D03*
X154940000Y-83058000D03*
X147320000Y-85598000D03*
X154940000Y-80518000D03*
X147320000Y-88138000D03*
X154940000Y-77978000D03*
X147320000Y-90678000D03*
X154940000Y-75438000D03*
X147320000Y-93218000D03*
D23*
X147066000Y-53086000D03*
X163068000Y-120142000D03*
D24*
X173990000Y-119888000D03*
D25*
X173990000Y-117348000D03*
X173990000Y-114808000D03*
D26*
X162306000Y-56388000D02*
X168188000Y-56388000D01*
X168188000Y-56388000D02*
X169164000Y-55412000D01*
X162306000Y-56388000D02*
X162306000Y-69859180D01*
X162306000Y-69859180D02*
X162308540Y-69861720D01*
D27*
X162308540Y-56390540D02*
X162306000Y-56388000D01*
D28*
X152908000Y-101600000D02*
X152908000Y-98806000D01*
X152908000Y-98806000D02*
X147320000Y-93218000D01*
X146558000Y-116840000D02*
X146558000Y-109750000D01*
X146558000Y-109750000D02*
X152908000Y-103400000D01*
X146558000Y-119380000D02*
X146558000Y-121920000D01*
X146558000Y-116840000D02*
X146558000Y-119380000D01*
X181610000Y-118618000D02*
X181610000Y-120818000D01*
X181610000Y-120818000D02*
X178957999Y-123470001D01*
X152908000Y-103400000D02*
X152908000Y-101600000D01*
X178957999Y-123470001D02*
X172978001Y-123470001D01*
X172978001Y-123470001D02*
X152908000Y-103400000D01*
D26*
X157306000Y-56388000D02*
X157306000Y-85772000D01*
X157306000Y-85772000D02*
X154940000Y-88138000D01*
X152400000Y-56388000D02*
X157306000Y-56388000D01*
D27*
X175768000Y-61214000D02*
X175768000Y-65541180D01*
X175768000Y-65541180D02*
X180088540Y-69861720D01*
X180086000Y-51054000D02*
X178986000Y-51054000D01*
X175768000Y-53594000D02*
X174361212Y-55000788D01*
X174361212Y-55000788D02*
X174361212Y-86994392D01*
X174361212Y-86994392D02*
X180088540Y-92721720D01*
X175768000Y-53594000D02*
X176899370Y-53594000D01*
X176899370Y-53594000D02*
X180086000Y-53594000D01*
D28*
X181610000Y-115118000D02*
X176220000Y-115118000D01*
X176220000Y-115118000D02*
X173990000Y-117348000D01*
X181610000Y-115118000D02*
X179014000Y-115118000D01*
D27*
X173990000Y-119888000D02*
X172840000Y-119888000D01*
X172840000Y-119888000D02*
X172136654Y-119184654D01*
X172136654Y-119184654D02*
X172136654Y-114629346D01*
X172136654Y-114629346D02*
X180088540Y-106677460D01*
X180088540Y-106677460D02*
X180088540Y-97801720D01*
M02*
