M48
;DRILL file {KiCad 4.0.7} date 11/12/17 23:12:26
;FORMAT={-:-/ absolute / inch / decimal}
FMAT,2
INCH,TZ
T1C0.031
T2C0.039
T3C0.040
T4C0.043
T5C0.047
T6C0.051
T7C0.126
%
G90
G05
M72
T1
X5.8Y-2.97
X5.8Y-3.07
X5.8Y-3.17
X5.8Y-3.27
X5.8Y-3.37
X5.8Y-3.47
X5.8Y-3.57
X5.8Y-3.67
X5.9216Y-4.
X6.02Y-4.
X6.1Y-2.97
X6.1Y-3.07
X6.1Y-3.17
X6.1Y-3.27
X6.1Y-3.37
X6.1Y-3.47
X6.1Y-3.57
X6.1Y-3.67
X6.66Y-2.1816
X6.66Y-2.28
X6.92Y-2.11
X6.92Y-2.41
T2
X5.77Y-4.6
X5.77Y-4.7
X5.77Y-4.8
X5.87Y-4.6
X5.87Y-4.7
X5.87Y-4.8
X6.85Y-4.52
X6.85Y-4.62
X6.85Y-4.72
X7.09Y-2.01
X7.09Y-2.11
X7.09Y-2.21
T3
X6.3901Y-2.7505
X6.3901Y-2.8505
X6.3901Y-2.9505
X6.3901Y-3.0505
X6.3901Y-3.1505
X6.3901Y-3.2505
X6.3901Y-3.3505
X6.3901Y-3.4505
X6.3901Y-3.5505
X6.3901Y-3.6505
X6.3901Y-3.7505
X6.3901Y-3.8505
X7.0901Y-2.7505
X7.0901Y-2.8505
X7.0901Y-2.9505
X7.0901Y-3.0505
X7.0901Y-3.1505
X7.0901Y-3.2505
X7.0901Y-3.3505
X7.0901Y-3.4505
X7.0901Y-3.5505
X7.0901Y-3.6505
X7.0901Y-3.7505
X7.0901Y-3.8505
T4
X6.Y-2.22
X6.Y-2.62
T5
X7.15Y-4.5322
X7.15Y-4.67
T6
X6.1931Y-2.22
X6.39Y-2.22
T7
X5.79Y-2.09
X6.42Y-4.73
T0
M30
