G04 #@! TF.FileFunction,Soldermask,Bot*
%FSLAX46Y46*%
G04 Gerber Fmt 4.6, Leading zero omitted, Abs format (unit mm)*
G04 Created by KiCad (PCBNEW 4.0.7) date 11/12/17 23:12:21*
%MOMM*%
%LPD*%
G01*
G04 APERTURE LIST*
%ADD10C,0.100000*%
%ADD11R,2.300000X2.300000*%
%ADD12C,2.300000*%
%ADD13R,2.000000X2.000000*%
%ADD14C,2.000000*%
%ADD15R,2.600000X2.600000*%
%ADD16O,2.600000X2.600000*%
%ADD17R,2.100000X2.100000*%
%ADD18O,2.100000X2.100000*%
%ADD19C,2.800000*%
%ADD20R,2.800000X2.800000*%
%ADD21C,3.000000*%
%ADD22O,2.000000X2.000000*%
%ADD23C,6.800000*%
%ADD24R,2.200000X2.200000*%
%ADD25O,2.200000X2.200000*%
G04 APERTURE END LIST*
D10*
D11*
X162308540Y-69861720D03*
D12*
X162308540Y-72401720D03*
X162308540Y-74941720D03*
X162308540Y-77481720D03*
X162308540Y-80021720D03*
X162308540Y-82561720D03*
X162308540Y-85101720D03*
X162308540Y-87641720D03*
X162308540Y-90181720D03*
X162308540Y-92721720D03*
X162308540Y-95261720D03*
X162308540Y-97801720D03*
X180088540Y-69861720D03*
X180088540Y-72401720D03*
X180088540Y-74941720D03*
X180088540Y-77481720D03*
X180088540Y-80021720D03*
X180088540Y-82561720D03*
X180088540Y-85101720D03*
X180088540Y-87641720D03*
X180088540Y-90181720D03*
X180088540Y-92721720D03*
X180088540Y-95261720D03*
X180088540Y-97801720D03*
D13*
X169164000Y-55412000D03*
D14*
X169164000Y-57912000D03*
D13*
X152908000Y-101600000D03*
D14*
X150408000Y-101600000D03*
D15*
X152400000Y-56388000D03*
D16*
X152400000Y-66548000D03*
D17*
X180086000Y-51054000D03*
D18*
X180086000Y-53594000D03*
X180086000Y-56134000D03*
D17*
X146558000Y-116840000D03*
D18*
X149098000Y-116840000D03*
X146558000Y-119380000D03*
X149098000Y-119380000D03*
X146558000Y-121920000D03*
X149098000Y-121920000D03*
D19*
X181610000Y-115118000D03*
D20*
X181610000Y-118618000D03*
D21*
X162306000Y-56388000D03*
X157306000Y-56388000D03*
D14*
X175768000Y-61214000D03*
D22*
X175768000Y-53594000D03*
D13*
X154940000Y-93218000D03*
D22*
X147320000Y-75438000D03*
X154940000Y-90678000D03*
X147320000Y-77978000D03*
X154940000Y-88138000D03*
X147320000Y-80518000D03*
X154940000Y-85598000D03*
X147320000Y-83058000D03*
X154940000Y-83058000D03*
X147320000Y-85598000D03*
X154940000Y-80518000D03*
X147320000Y-88138000D03*
X154940000Y-77978000D03*
X147320000Y-90678000D03*
X154940000Y-75438000D03*
X147320000Y-93218000D03*
D23*
X147066000Y-53086000D03*
X163068000Y-120142000D03*
D24*
X173990000Y-119888000D03*
D25*
X173990000Y-117348000D03*
X173990000Y-114808000D03*
M02*
